<mxfile host="app.diagrams.net" modified="2023-05-30T16:15:27.691Z" agent="Mozilla/5.0 (Windows NT 10.0; Win64; x64) AppleWebKit/537.36 (KHTML, like Gecko) Chrome/113.0.0.0 Safari/537.36 Edg/113.0.1774.57" etag="TlhY-JMUXLVAUu2V-oz8" version="21.3.5" type="device">
  <diagram name="Page-1" id="EIHultQD0V-GNnVIDPL1">
    <mxGraphModel dx="1434" dy="796" grid="1" gridSize="10" guides="1" tooltips="1" connect="1" arrows="1" fold="1" page="1" pageScale="1" pageWidth="850" pageHeight="1100" math="0" shadow="0">
      <root>
        <mxCell id="0" />
        <mxCell id="1" parent="0" />
        <mxCell id="fx2V1x_EYDCKQsAQwcrW-1" value="" style="shape=image;imageAspect=0;aspect=fixed;verticalLabelPosition=bottom;verticalAlign=top;image=data:image/png,iVBORw0KGgoAAAANSUhEUgAAAu8AAALvCAYAAADVgytRAAAAAXNSR0IArs4c6QAAC610RVh0bXhmaWxlACUzQ214ZmlsZSUyMGhvc3QlM0QlMjJhcHAuZGlhZ3JhbXMubmV0JTIyJTIwbW9kaWZpZWQlM0QlMjIyMDIzLTAyLTI3VDEzJTNBNDQlM0EyMi4zNTRaJTIyJTIwYWdlbnQlM0QlMjI1LjAlMjAoV2luZG93cyUyME5UJTIwMTAuMCUzQiUyMFdpbjY0JTNCJTIweDY0KSUyMEFwcGxlV2ViS2l0JTJGNTM3LjM2JTIwKEtIVE1MJTJDJTIwbGlrZSUyMEdlY2tvKSUyMENocm9tZSUyRjEwOS4wLjAuMCUyMFNhZmFyaSUyRjUzNy4zNiUyMiUyMGV0YWclM0QlMjJvYlM5V1JnU253TnpwX1FDelV6UiUyMiUyMHZlcnNpb24lM0QlMjIyMC44LjIzJTIyJTIwdHlwZSUzRCUyMmdpdGh1YiUyMiUzRSUzQ2RpYWdyYW0lMjBuYW1lJTNEJTIyUGFnZS0xJTIyJTIwaWQlM0QlMjJWMmdyRHV1Q2VGT0FleFpTVnpTdSUyMiUzRTdWeHRjNk0yRVA0MSUyQmRnTUFzVExSNyUyRmxlalBwVEJwZm03WmZQTEpSYk4xaDVJTHMyUDMxbFVEWUNNbXhjdzZKNDVCa01tZ1JrdGpkWjUlMkJWRUZ3NXZmbjZTNG9Xczk5b2hPTXIyNHJXVjA3JTJGeXJaRDIlMkJQJTJGaFdCVENGd2ZGb0pwU3FKQ0JIYUNJZmtQUzZFbHBVc1M0VXlweUNpTkdWbW93Z2xORWp4aGlneWxLWDFTcXozU1dPMTFnYVpZRXd3bktOYWxEeVJpczBJYVFHc24lMkZ4V1Q2YXpzMmJYa21Ua3FLMHRCTmtNUmZhcUluTUdWMDBzcFpjWFJmTjNEc2RCZHFaZml1cHM5WjdjRFMzSENqcm5nJTJGb3MzdDZQMTc5JTJGJTJGR005dSUyQjE3d2JRMkh2OGhXVmloZXlodSUyQngxTkNFemxrdGluMXNLQWtZYmt1WVpmJTJGOGE1NjFoWGtaM3FpZEczRG1xQmU5bFVCMEV1aURWVlFMJTJGdXFBTlNiQjdYJTJCUVgyQUZZRldVcHEzYXYxYmxRSHlQNmRMbHl3bUNlNXR2Yzdpd21tS0lzS3QwYU14VGJrc29RblhYbmZHNWpFdkFYNzROQ01NRHhkb0lyVDZ4QUhEWlk4MFlkTHZnVjJXcGVKRnE5eXpHZUo5cGJLTjNCSTRIYXh3WVpDaVRoeWpSVWJHMjZ0U1BGbW1HVm5oZTV3VmpRc3A5OEdGT0o2dnB3S3QxJTJCZ3BjNiUyQm5LVjB1OHVGJTJGNVgwWno0N1N3aXQ0Q3l5bFAzQjVoMWUyQTF4JTJGME8ySWNaTTRydDM1Q3FlTWNDeDFZaklWRFRNcSUyQmtHeUZPTkhKbHJrNmlESjlEWXY5UjFMcXNEVVJZU3lHWTZrSHFUbjhpN3dlaThrd0Jab1BFQmhPc2NzM2ZBcThvSkFRbFBHSmxCQzlXbUhkTCUyRkU4NnlDY2hoS0laTFJaYnB0ZWdkQWZpQXglMkJBSTgyaG9lT3l0RVlqUW1NV0ZpNVA4SXpkb1cwQUJxVVA5JTJCV3ltS05GdXA3b2I3YkhLVUdmYkhucjIyOFh6Rk5xNnJtY1oyVEtZQlhrT21jWTQwalgzeHBuSENjN05OQ2R5S2NmNjg2N1VrMXBKWWxjUldpNGtKZXJZYkJNQnRsTUU2bmE3ZkRhcm90aHJFcHhzbzhBeDBWb05ocU1QVDlkeUc0T2xiR2hSeHhOTnNXYVFwbTlFcFRWQTgyRW03M0dSSnROWFZyczR0RlRiSXZlZzdabXdqM1E0dEdWWDl0T2hUZFBSOGVzREhSWmZwQkQ5ekE3YlVERVBwRkQ5bm1IMEpSNHBqeExnanElMkZPVFZ3JTJCRHJoWUdOY1ZuUHpDYnpFcXRtaUpBelhmNTc0MFl3NzdJVUVWTldiMnY0VXhXVnZ5JTJGQk5jdEd1UDRqbWFFNVRsbWYwd1pvJTJGT0Q2SnRnRVVKVW14JTJCS1F5aGJGRGY2U05aaUhGb2dBdnNDekNRbXVkdThSdDdwaEs2YWVPb0k5Y0ExREhTTWVrMGxubzZucHpjUFF5N294WFFadFV6YU1tbVZTZm5oYUNJY1k0UmladVRVTW1nMHg2bmJMbDdPcWMlMkJqRTZxend0QXdLWVNHN05iekc4T21yMkh6TGlVcnhNUjBJMXVPRTA1SkxVQmJnRllBbW9ubSUyQkxSMHRLczh6REZhTm56VU1nNlhEN3diJTJCeVpvY2kzbnRFeTQ0SzI5V0FhdUNtYkg5elEwQTlOY2RTdDhmVFFIR3BxSDBscjVLcml3MTglMkJzSVBUN0RoU3ElMkJMbEZnJTJCM1ZKNWpDZjk0VW9Xb0pvQmtpQkxvZEF0aVVHY0l6eUpVSHR0JTJCNXdGdzVqYkxSZkpQOUc0OUlrakdVaVBEWm5HTTU2blFYNmdpSHJ1NVlzS25KcnFzdkZMWnMzYkoxeTlhSDJkb056NDZ0WFgxSjVUTFl1Z2hUSDRXdFhkaXk5UWRoNndPT2RXNXNyYTk3M1MzSE1abTBaTjJTOWV1UXRmSDVraURya0VjZjd4VVh4TXAlMkIzb2VzYlV0ZktIdHJzdFlYeXA1bkNTT1VqWEEyUWRvSWF4M2FTclVjYklZZTZrS1R6TmVGUUs5VzRsTVhtbVNtWUZTJTJGR2hpdUJyV3I5NGVDWTBtWG43dnhnNEhsVnM3MUNRZXY1TTVFUEFMVVVkUzNZQSUyRjRKdHc5NWolMkZuU00xbUdzYkZZOGdpOHZDb2xabGlFSjZjbVBZZEFMV0thV2pyN0d6YTJORVlvQzkxcmV5QUdlclp0eDVaUTRNWmdxQWhNNVRaZjVza3RVbFNteVNkOHZ6aERKSWtXNSUyRnh0RWxTbXlTMVNWS2Q3ejVLa3VSYzZoTGxBVE9jV1pJRVhqcjViR0NKMHUzYmZxZHplVXVVYUxIZzJTWVNReHpGRkVXak1ZckZRbVhhSkhjN0VDb090dVh5aW9lNUJnOXpHMk51UFExdm1mc0RNWGZvd3Y2TiUyRlRMbWhoM0g2c0pQdzl4b1FVWlR4UEFUMnJ3bHRBMTclMkZONFUyVkJIZGtmc1o3Y3Q4U29xbjlIc0pmSjJubjNaOCUyQnhlQ2NobnQlMkJOeVh4bGxoYWVZWnR6QW1ONEZuZ2VjV3NRNWFvdnVOa2pVVTc2eVJlVWROamtuJTJGNWElMkZ0V0hEUm1mYnRwcVpBd091b1cwQU5tZ3NPUzlmdnFrZ2U5RFRhWnRyUXQ5SExZMmhxMTAzV01XWDY3YWJreWpLWDZneE9ibjZrczNQR3dZZWVKbFRUZFVCME44WU5DNkMyRTFaUlklMkIzbjlBcWJoMHU3MjJXMGsxYUdteHBzS1hCVjZOQnh6TnNzbmxqR3JRMVpOJTJGM2h4Y1hjSXNBZGpRTkdwYXNqUEcyTWF2b1c1VSUyRm9WVTBHbnh2cyUyRmc2RFg3OThuQnhaamswUnclMkZWT2JyaE5YWmpER3NNTFBwZWhNNXQ5JTJGTlpwUVlXdzZMbzI0TGxpTWVaSCUyQnRqQSUyQldEaElNZkc5aXowZmJvYncza2wzYlNGRzBxRldRbXZXdjVUZ2dxMGRKVFlWayUyQjE3bzV0bjU0b0Q3MFQ2cnYlMkJFcDlmbERjNGM3RHRxbzZ3ZW4wV05BcnZnJTJGd2djUEJnY2xpN2JWb3c3ZXlQQVB1Rzl2R0VQanZBWE91ckhUemx5aGNXeFlzQlglMkJMQnElMkZkJTJGS2w4THVpdlpSZEZhVk10M2VHVWNCWGtFeWJyblNLSGZXTGsyR001WHR4OXo3REEydTZqa003Z2Z3JTNEJTNEJTNDJTJGZGlhZ3JhbSUzRSUzQyUyRm14ZmlsZSUzRRA7G6IAACAASURBVHhe7J15vBVl/cc/zxw2V1BxT0FRQSu5bmW5YYtbYliJLZqY6S/NFMxyS7gXtaxUwCzNMjHNEisxTEUrL6JluV00ExQUMldQQWUTzjy/1zP3zLlzzz3nzsw531nPZ/6Be86zvr/feeYz3/nOcxR4kAAJkAAJRE5gl5aDPmvbuiXyjhLpwFpesNbPeb7j7x2JdM9OSYAESKCJCKgmmiunSgIkQAKxExjaMmqope07FPIq3LuQKo2pC5+aOyF2yOyQBEiABJqIAMV7ExmbUyUBEoifwLCRBz0AYFT8PSfUo8Kxizrmzkyod3ZLAiRAArknQPGeexNzgiRAAkkRGNoyalBBF98u9b8ECuMV9PKkxhNdv9YorfUkp32NOxc9NXdMdH2xZRIgARJobgIU781tf86eBEggQgK7tBw4SmtlIu9QSrUt7HiwNcLuEm162MiDdEm8z1n01NzmedKQKHV2TgIk0IwEKN6b0eqcMwmQQCwEaol387lt45BYBhFZJ9Zy27JuWtzR7jxJoHiPDDQbJgESIIFuBCje6RAkQAIkEBGBauLdvMBa0MUXI+oy3mY1blr01NxxFO/xYmdvJEACzU2A4r257c/ZkwAJREigmnj3fhZh13E1vXzRvLmbUbzHhZv9kAAJkABA8U4vIAESIIGICPiKd42blKWnR9R9ZM26efymg0Xz5jrXEabNRIabDZMACZBANwIU73QIEiABEoiIgJ94z+pLrGWhTvEekeewWRIgARKoTYDind5BAiRAAhERoHiPCCybJQESIIEmJkDx3sTG59RJgASiJUDxHi1ftk4CJEACzUiA4r0Zrc45kwAJxEKA4j0WzOyEBEiABJqKAMV7U5mbkyUBEoiTAMV7nLTZFwmQAAk0BwGK9+awM2dJAiSQAAGK9wSgs0sSIAESyDkBivecG5jTIwESSI4AxXty7NkzCZAACeSVAMV7Xi3LeZEACSROgOI9cRNwACRAAiSQOwIU77kzKSdEAiSQFgIU72mxBMdBAiRAAvkhQPGeH1tyJiRAAikjQPGeMoNwOCRAAiSQAwIU7zkwIqdAAiSQTgIU7+m0C0dFAiRAAlkmQPGeZetx7CRAAqkmQPEeyDxfAXCLp+SBAB4GsAGAKQBuBrAMQCuAMwG8GajV7oW2AHBNqY0FddRnFRIgARJIDQGK99SYggMhARLIGwGKd1+LGuF+IgDzrxHlRmT/BsAlAJ7wiHcj5hs5KN4boce6JEACqSJA8Z4qc3AwJEACeSJA8d6rNb1C3SvODygJ+gsBfL9G5N2UeajU+s8BTCj930TqXwYwufT3RABXlG4C/g/APADHA2D0PU8nGudCAk1GgOK9yQzO6ZIACcRHgOK9V9ZGgF/sibpXFq6VNjMYwNUAzgLw35IwN4LdFemmHSPm9wbw05JYN2k3TJuJz/XZEwmQQIQEKN4jhMumSYAEmpsAxbuveDcpM0Zor65SspZ4PwLAQZ56lZH6uaXUG2+qDMV7c5+KnD0J5IoAxXuuzMnJkAAJpIkAxbuveK8n8m7Eu/cFV9PJbACnlCL55gVXk4ZD8Z6mk4FjIQESECNA8S6Gkg2RAAmQQHcCFO+9ekStnPfhJSF+eY2cdyPedy691OrtwBupp3jnyUgCJJBbAhTvuTUtJ0YCJJA0AYp3XwvU2m3GRM//WGOrSG/Ou3nx1ETvtwfgfcGV4t0XPQuQAAlklQDFe1Ytx3GTAAmkngDFeyATVe7zfkIpZ723fd69u82YlBnTxqqKrSW9aTPui637c7eZQDZhIRIggRQToHhPsXE4NBIggWwToHjPtv04ehIgARJIIwGK9zRahWMiARLIBQGK91yYkZMgARIggVQRoHhPlTk4GBIggTwRoHjPkzU5FxIgARJIBwGK93TYgaMgARLIIQGK9xwalVMiARIggYQJULwnbAB2TwIkkF8CFO/5tS1nRgIkQAJJEaB4T4o8+yUBEsg9AYr33JuYEyQBEiCB2AlQvMeOnB2SAAk0CwE/8Q5gurIwPWs8tI12d8yL5s11riPDRh6knc805ix6au6orM2J4yUBEiCBrBCgeM+KpThOEiCBzBEIIN4zN6eKAS9ZNG/uUIr3rJuR4ycBEsgSAYr3LFmLYyUBEsgUgWrifWjLqEEFXVwMYGCmJlNlsEqptoUdD7ZSvGfdkhw/CZBAlghQvGfJWhwrCZBApghUE+9mAkbAWyiOs6AGZWpCnsFq6I5FHXNnuh8xbSarluS4SYAEskaA4j1rFuN4SYAEMkPAK96h9LRFHQ+Nz8zgQw6U4j0kMBYnARIggToJULzXCY7VSIAESMCPQClF5u1SueVa66l+dbL4vVKqBcAYZ+waNy16au64LM6DYyYBEiCBLBCgeM+ClThGEiCBzBIYtudBM6Hw2cxOIOTAldKHLux4qLwbTcjqLE4CJEACJOBDgOKdLkICJEACERJwou92cXoTCPgVUBi/qGNu5ra+jND8bJoESIAExAlQvIsjZYMkQAIk0JPA0JZRQ/tgvbOtYh4PRtvzaFXOiQRIII0EKN7TaBWOiQRIgARIgARIgARIgASqEKB4p1uQAAmQQAwEdm35eIuNPiO1becu+m5ZqmM9CvMWd7Sb/et5kAAJkAAJREiA4j1CuGyaBEiABEo7ztwBYFTuaSiczJz33FuZEyQBEkiYAMV7wgZg9yRAAvkmMGzkQUa4d26j2AQHd5tpAiNziiRAAokSoHhPFD87JwESyDOBin3eVyilcrnPu7b1UCic5NiS+7zn2aU5NxIggRQQoHhPgRE4BBIggXwS8P7CqlKqbWHHg635nCnAX1jNq2U5LxIggbQRoHhPm0U4HhIggdwQSLt4Ny/RalUYWC/w9bqwxH1JleK9XoqsRwIkQALhCFC8h+PF0iRAAiQQmECaxbuz+40uPBl4MtULLl40b+5O5iuK9wZJsjoJkAAJBCRA8R4QFIuRAAmQQFgCaRbv3rGFnZe3/KJ5c53rCMV7IxRZlwRIgASCE6B4D86KJUmABEggFAGK91C4WJgESIAESCAAAYr3AJBYhARIgATqIdAE4n3FonlzBzHyXo93sA4JkAAJ1EeA4r0+bqxFAiRAAr4E0izezeB3bjlovAXliO96Dg3dsahj7kyK93rosQ4JkAAJ1EeA4r0+bqxFAiRAAr4E0i7efScQogBz3kPAYlESIAESaIAAxXsD8FiVBEiABHojUPEjTYuVwngoLM8bNbuoWpTSnT9ApXHnoqfmNs0vyubNlpwPCZBA+glQvKffRhwhCZBAhgkM2/OgdigckuEphBu6wrFuKk24iixNAiRAAiQQhADFexBKLEMCJEACdRIY2jJqaB9dnKmBkXU2kZ1qSk9b1PHQ+OwMmCMlARIggewRoHjPns04YhIggQwSGNZy0BgF1RLH0N9fs2rb99esHL7xoC3b4+jPhl5eQLH9+Y6/d8TRH/sgARIggWYmQPHezNbn3EmABPJKYB8APwewb14nyHmRAAmQQLMSoHhvVstz3iRAAnkmQPGeZ+tybiRAAk1NgOK9qc3PyZMACeSUAMV7Tg3LaZEACZAAxTt9gARIgATyR4DiPX825YxIgARIwCFA8U5HIAESIIH8EaB4z59NOSMSIAESoHinD5AACZBATglQvOfUsJwWCZAACTDyTh8gARIggfwRoHjPn005IxIgARJg5J0+QAIkQAI5JUDxnlPDclokQAIkwMg7fYAESIAE8keA4j1/NuWMSIAESICRd/oACZAACeSUAMV7Tg3LaZEACZAAI+/0ARIgARLIHwGK9/zZlDMiARIgAUbe6QMkQAIkkFMCFO85NSynRQIkQAKMvNMHSIAESCB/BCje82dTzogESIAEGHmnD5AACZBATglQvOfUsJwWCZAACTDyTh8gARIggfwRoHjPn005IxIgARJg5J0+QAIkQAI5JUDxnlPDclokQAIkwMg7fYAESIAE8keA4j1/NuWMSIAESICRd/oACZAACeSUAMV7Tg3LaZEACZAAI+/0ARIgARLIHwGK9/zZlDMiARIggc7I+7CRB2uyIAESIAESIAESIAESIAESSD+BWMS7Umhb2PFga/pxcIQkQAIkkAsCjLznwoycBAmQAAl0J2CC7hTv9AoSIAESyB8Bivf82ZQzIgESIAFQvNMJSIAESCCfBCje82lXzooESKDJCVC8N7kDcPokQAK5JUDxnlvTcmIkQALNTIDivZmtz7mTAAnkmQDFe56ty7mRAAk0LQGK96Y1PSdOAiSQcwIU7zk3MKdHAiTQnARqi3eNOQ4SpYcCagiglwBqEICBPVF5vivXQ4u3LHebaU4H46xJgAQSI0Dxnhh6dkwCJEAC0RGoLt6VPlahsByqqBc+OXfOsD0Pboelp2tgkNJqChSmLep4cPywkQcvNwK9qKzN+mjdrpQaZ6M4VNtqiLL0Cmh1ozt0ivfojMiWSYAESKAKAYp3ugUJkAAJ5JCAb9qMVnqCE4C31SjLslptbT8JpY+1UFhs2/ZUpdSg9UqNKWj7yUXzHtzMFfSVrIKK911GHnw5NHZY1Xflqa88/viqXfc+eHd7Pa4o9LVOeu7x9mWmXVPGBkb16WMd7f3MfLdw3oPn77bPqMHr19t3KeCj5jMN/NNbtnJsleWVxq299d+IH+yy10GH2Lb6YW/jaaR91iUBEiCBEgGKd7oCCZAACeSQQFXxrqDmaWVPVSgsduestX2HK86Lymop2HarsrDYROMB3eFE2ZU+uYjCzAKKY5S2xmvokWEi70ao6/X4nnOz0AeXPv/Eg88aYV1cZ99k9cG55u/t9tlnww2LG14BrfaBpb9rngw4n63b6Bco6Ostq/CMEe4Arn9h3oO/Mm3tPPLgrwE4rZpgdoV7ZXlL45NGwG+kNxpSefPQiB9QvDdCj3VJgARCEKB4DwGLRUmABEggKwSqineTBlOw7alQOMkIciPitbYfMBF3QI1SsGZqbd+olHWyRnEQbDUOCp8tTXqx1phuW9a0graN+Hdy5INE3ksi22nGAnYzUXTz/1Kk/Tkjxh2Bb+tvaduar5Tezo202+vsaVZf62yt7S11EdNVAeOM2Df1XYFuWfo8I/a9xjF9ukLdRPrNd96bAaXUG17xbsaigfNMOQ2cYsbkLW/ar7zhcJ4eFPU95t0BBfyw8qlBVpyF4yQBEsgUAYr3TJmLgyUBEiCBYASqiffFi+Y9uFMp/QVKWWMcoWrEu8ZNRctq7QN7nNaYZEQ+gEEFbb8IYIWCWtwZbddLFs2bO3TYyIMWd77s6i/e3Yi6stRPlLKWumLcpMWYaDVsdaQR6u7/VQE3GRG/qrDq3A3tDfdDUZ1mIuWmLxOF1wpfVpYeVSnWvVhc0W0r/NWN0ldi86btrF9vH+NG8M1NghHkysJJq6xVj7qR/0rxbubifRJQLeUnmKlYigRIgARCEaB4D4WLhUmABEggGwSqRt61xnjbsm4qoDgK2jLR95nQmA5gsbL0ONtWUxXQojVaS8Lc/LtYKT1+YcfcO4e2jBpa0HoSoMe5GPwi725E3YhxEwF3ct8tfY8Rw14Bba+3zzWfO4K5uOEVRuwXi/iY6ccrwI3I17ZqL/dfRchXRsyrmayybxtwngCYss4YAazqs3JyLfFuvvdG7qvl8GfDVThKEiCBjBGgeM+YwThcEiABEghCwPeF1SCNBCnjJ95N+ooCbvC2ZVJMTLTdjcrbqvAry7a/YPWxrnAi8iWBb6LyrtCvJcArU2lMuTCRd/THN9RaXO6N0jspN8BuvYl3rfVW3hdUKd6DeAvLkAAJCBCgeBeAyCZIgARIIG0Eeop3s0+7wiF1D9TUt/R0J0/e5MNrdYdpqzfxXi0nvTJv3BH3Wm2sLHtEOTpvoutFa6TJfS8Lek+KjTuH3iLs1XLeTT33xsCb826i/kEi785ThFLePSPvdXsSK5IACTRGgOK9MX6sTQIkQAKpJFAl8q7bzT7uFS+hhhq8s1sN7EGdee8Haz/xXm0HlsqoeGcaDM7XULe7aSvll1e19eyieXN+YvqpdiNQqnuTVVBHui+xuhOqtdtMt9z20laVvjnvCi+ZJwWdTxH0RNPfSrVyiUmpcSP2zHkP5UosTAIkUD8Bivf62bEmCZAACaSWQK20meVQGF+EdafZ9hG2GgOlW9yXT6vORmOOstBudqIpojjK0tY4s92k+0NNvUXe3dxxd3cZt33vFo/mM/Pip3fHmFppL5X7tpsXaKsJ90oBX21f+Mo0l2q7zZh2uu0oo9VFGvoAd3vLyu8A/UGzM467R31qvYMDIwESyDIBivcsW49jJwESIIEaBPxy3hdDodWI+MUd7ebXVLFLy6hR3rbWA4sXd7QvHtoyalAB9mfR+RLrULMzTWn7yEF+kXdahwRIgARIQJwAxbs4UjZIAiRAAskT8BPvnhHqdq07d2+xCtr51y4qR8grpUeZ/d97m47fC6vJo+AISIAESCBXBCjec2VOToYESIAEOgmEEO+NIaN4b4wfa5MACZBASAIU7yGBsTgJkAAJZIEAxXsWrMQxkgAJkEB4AhTv4ZmxBgmQAAmkngDFe+pNxAGSAAmQQF0EKN7rwsZKJEACJJBuAhTv6bYPR0cCJEAC9RKgeK+XHOuRAAmQQIoJULyn2DgcGgmQAAk0QIDivQF4rEoCJEACaSVQFu/mhdJoB2m1L+xod3ap4UECJEACJBA5AYr3yBGzAxIgARKIn0BZvC+a96CKv3v2SAIkQAIkEBEBiveIwLJZEiABEkiSAMV7kvTZNwmQAAlER4DiPTq2bJkESIAEEiNA8Z4YenZMAiRAApESoHiPFC8bJwESIIFkCFC8J8OdvZIACZBA1AQo3qMmzPZJgARIIAECiYr3LSbeN10BJznzVqodGp0vtCqMgtajRD+Hbls2+fBW0+bgibNbATWpkzc/Jwf6A8+L/K0D6199Hu/c1vqq/c7S7Wjf/NmX6zbXbZ7X2TuvpXR+ouK9u4iWmlJlO13GjaoHtksCJEACKSTAyHsKjcIhkQAJkECjBCjeGyXI+iRAAiSQTgIU7+m0C0dFAiTQZARMsNrN/pCYerLi/eLZ7VDqEImJ1G6Dkfdo+bJ1EiCBlBKgeE+pYTgsEiCB5iIweOJ9etnkw8S2ZE9WvE+8T/ciuu/sY9nj19vWVEB9tn4zU7zXz441SYAEMkyA4j3DxuPQSYAE8kOgecS7VjP7FNZPKNqFVu2+1FqXHSne68LGSiRAAlkncAKArwPofPmfBwmQAAmQQCIEmittxlKHwtbODjEBjxYAA7uXpXgPyI7FSIAE8kVgbwC/AGAi8DxIgARIgARyQiDhtBnvVk9ViDri3R4FWL2k1wDasudZUIu1jSd7tkLxnhNf5TRIgATCEdgLwA0AjIjnQQIkQAIkkBMCGRDv+gEf1iv6WMWW9XbBCPdBFO858UxOgwRIoFEC5knkjQCMiOdBAiRAAiSQEIFmTJvpXbx3ptZMAWAuVFWO2pH3rS78y9Z2H9v8MNSIbhU17i6s1mNfv+LwlfXYeauL7x1ZVNbPCuutz73x/U+9Xk8brEMCJEACDRKgeG8QIKuTAAmQgASB5nlh1dDqFOa9ifflysKh2sZMAEPqFe8W1Pg3Jn96tqm/9bmzNypuoGYo6NlLLzn8agmjsQ0SIAESSIDASAA31Q5sJDAidkkCJEACTUiA4r2n0TtgqQmwtRHwFS+rmsL+kXeveDc1trx49lnaUrsvazvsdPP3VhPvP9yGvtfp2hOV7xa517hbKwwqaPsMU8wbea9W3ymzgZoBC/+FxjecthWuc/tsQt/mlEmABGQJ7AngZgBGxPMgARIgARJIiEATps2YF1Z9Dstq17AHKVvd0bNkOPFeGXk3KTC2Ktxm6eLxarVa6ApuI7IHT7rvWtOf+b8j+JW62NL2p7ziHYX129jK+osFdYJaZT/k1i+s1Oc6/wdgUnT0htaBNvQtpv4blxwxz2/K/J4ESIAEfAh8GMBvABgRz4MESIAESCAnBLLwwmorNHrdbaZsC+XkvVe8tOov3nvkvHsi4I4ohzrczYF3ouhan1XQ+sz1lrrFRNqN2DZR+GIf+4+VkXf00S1O+VIOfSkKP7Vg66OKSl3jpud461O85+Ts4jRIIFkCHwLwWwBGxPMgARIgARLICYEsiHe/3WZ8TOEv3t20GW+U3RXQpYj6tIpO5hds/c2iZf3MROR7E++6UDy+m/gvvczax9YnGPFuKXW1ybeneM/JGcVpkEB6CHwQwG0AjIjnQQIkQAIkkBCBJkyb8d0qUky8m4ZKYv10a701yuwUU5n/7nZWKbbrjbxTvCd0JrFbEsg/gT0A3A7AiHgeJEACJEACCRHgC6uhwQePvJume8t5NxF2J8/dxo4mDaa4kbrC1Gkk553iPbRBWYEESCAYgd0B/AGAEfE8SIAESIAEEiJA8R4afDjxbpov5aWXXx7ttlsMMN+NynfbbUbhR1rjwLC7zVC8hzYoK5AACQQjYH6/wrzEb0Q8DxIgARIggYQIMG0mNPja4j10U71UcF9EdYW9ZNtsiwRIgATqIDAcwJ09XsivoyFWIQESIAESSA+Bpn5htREzuOk1UDiq1M4ybvPYCFHWJQESECawG4BZAIyI50ECJEACJJATAhTvOTEkp0ECJEACFQR2BfBnAEbE8yABEiABEkiIQFOkzSjgJm2p6evRp6MP1regiBYoPaU+5vGkzdQ3NtYiARIggcgI7ALgHgBGxPMgARIgARJIiEBzvbAqApniXQQjGyEBEsgagWEAZgMwIp4HCZAACZBAQgQo3kODp3gPjYwVSIAE8kBgZwD3AzAingcJkAAJkEBCBJoibUaWLcW7LE+2RgIkkBECOwH4KwAj4nmQAAmQAAnkhECyL6y23j8Ktj0qUpaW1b6s9dPtkfbBxkmABEggfQSGAngAgBHxPEiABEiABHJCIFHxnhOGnAYJkAAJpJEAxXsarcIxkQAJNB2BfKXNTJzdumzy4a1NZ0VOmARIgASiJzAEwBwARsTzIAESIAESSIhA7l5YXTb5MJUQS3ZLAiRAAnkmsCOAuQCMiOdBAiRAAiSQEAGK94TAs1sSIAESyBiBHQA8DMCIeB4kQAIkQAIJEWDaTELg2S0JkAAJZIzABwD8A4AR8TxIgARIgARyQoAvrObEkJwGCZAACVQQ2B7APwEYEc+DBEiABEggJwQo3nNiSE6DBEiABCoIbAfgUQBGxPMgARIgARJIiADTZhICz25JgARIIGMEtgXwOAAj4nmQAAmQAAkkRIAvrCYEnt2SAAmQQMYIbAPgSQBGxPMgARIgARJIiADFe0Lg2S0JkAAJZIzA1gDmATAingcJkAAJkEBCBJg2kxB4dksCJEACGSOwFYCnARgRz4MESIAESCAnBPjCak4MyWmQAAmQQAWBLQE8A8CIeB4kQAIkQAI5IUDxnhNDchokQAIkUEFgMIBnARgRz4MESIAESCAhAkybSQg8uyUBEiCBjBHYAsACAEbE8yABEiABEkiIAF9YTQg8uyUBEiCBjBHYHMDzAIyI50ECJEACJJAQAYr3hMCzWxIgARLIGIHNACwCYEQ8DxIgARIggYQIMG0mIfDslgRIgAQyRmAQgBcBGBHPgwRIgARIICcE+MJqTgzJaZAACZBABYGBABZTvNMvSIAESCBfBCjeU2JP80gFUJM6h6Pblk0+vNX8j5+TA/0hwfNC6znLLjl8VEqWibDDMOJ9CQATgc/FwfWQ6yHXwwTXw1r6JNvrZCxrI9NmYsEcfyfSho1/BuyRBPJHIOPn5aYAXgJgRHwujozbIxc24CRIoJIAz0t/n+ALq/6MMllC2rCZhMBBkwAJSBLYBMDLAIyIz8XBdTIXZuQkSKDpCEivXYmmzUhPJsveQBZZth7HTgKpJLAxgFcBGBGfi4PrZC7MyEmQQNMRkH46kbB4n93q5nY3nSUrJixt2GbnyfmTgASBjJ+XGwF4HYAR8bk4Mm6PXNiAkyCBSgI8L+P3iUTFe/zTZY8kQAIkEJxAxiO9GwJYCsCIeB4kQAIkEAmBjK+TkTCJulGK96gJs30SIIHMEsj4RWkDAG8CMCK+0cP8Sus1AMwuWAtKjZn2pwD4P0/jJwD4DQD3u5sBPFz6/gAADwE4sOKziwF8pTTWRsfJ+iRAAjETyPg6GQst6acTiYp36cnEYoGIOiGLiMCyWRJogEDGz8sBAN4uCWlDoQ+A9XXiqBTv5m8j0o0wv6TUpvuZ+dt8bkT5C6VypogR6KMBPOOpYz7b2fN3r8PLuD3qRM9qJJBuAjwv/e0jfYOTsHi/Ty+bfJjyn3b+S0gbNv/EOEMSIIEqBM4DMBHAdwDcAGBFSbx/G8ClAMz30+ogVynejeg+CMAEAKs97XnFuIm0n1gqY4q0lUT9FwGcWYq0G4H/N08k3ke885pRh+1YhQRIIGEC0hqP4j1hg7rdSxs2JdNqaBhbXXzvSFtZf7GgTnhj8qdn19vYVhPvP9zW+qzCaj22uJG6Qtn62aWXHH51rfa85V+/4vCV3nKDJ913ralvrcYNxQ3UDEupq6GLrxWV9bPCeutzulA8Xltq92Vth50eZLxbnzt7I9MOFI6qKL/M0van3rjkiHlB2mm0zJYXzz4rzLgb7Y/1IyOwJYDXAKwFYHx3cwDvAOhvfv2t9Lf5LuzhFe//LaXLzPVE1au1Z+pcBuCi0pfm/+YG4qzSjcWyKqk4FO8hLcN1Mvp10qz70PhGyTTzrfXWqDe+/ynzMjgPEghEQPrpRMLinbvNdIl3sqg8A5wFs3QEFcN+Z5ErvusV7277rug24t17YyEhgp02oA43NxuVNw9+86vne6c/paZB4TopzvWMI411pBfcmOZ4ZSmy3c/T33sAfgDg+3WOoZp49+azmwj65FLbP/dE201OvClnwCTCxAAAIABJREFUjk+U0mNMdN4cjwE4BYD5ZWlv9L7mEDNqjzqRB6vGdTLaddIJ5ig9xl0bXd5cK7v8k+dlsHNVslSi4l1yImwrXwS2uvAvW9sF+1dWwbqgaNvXFrR9holCV0bFTdTJjXobAnYfux3ACIdGSYzWirw7ffRSHspJOfgSgHKkpbfIu9L6J1Dqt27fzhA8UX4jks1nvjcO0FO9kR1v1EdpfbapX47YW/hvOSLkEd9uNA7AYO/4K73EadvGjkqpv2ulP8ALUndCGX0iZqLtJipoctzdw0ThTVQ+kEiuspoEjbx7U2VMX65QN00uLqXHmDJGyJt0GVfQ52sBi2k2XCe7IuBRrpNeczrXk4o1OiZzp7abjK6TqeUZZGAU70EosUzsBLzRDq/oNRerYh/7j66YdyPdhZX6XJN+oqBnG3HbKV4Lt1m6eDxUYZvKtBk37aVmeeh7XaHsjbSESZvx3jQYgMUN1S8sbf+wViqMezNhQY13o/mlqPjpRsyjsH4bN41IrbIfctJtAJgIvd7QOtCGvsWk2qDY5zVzU+K24wr03iL5Ek8MYneSGDrM8EXpx6X0FBN9N1H3H5ZSVuqlFjTnvVK8DwcwtvRDUSYH3+xUY9o6o3SDYV5edXejqXdsTVuP62RnOmVc62S5rxifjGbBuTO8TsaGV/rpRKLiXXoysVkhgo7IoiLiOem+ay2tZhoRW4oin1dYpU91RHBJpHvzzitz4r0iv5p4r4x+9yjviax4o/t2X7s1aM57OSpWtL5WEt7OHKqlwriRdPdmwqVRmebj3kj0uFnx3NQ4860x/lp5mhTv1U/qDJ+XgwC8AaAvgFUAtirlwNe7eoXZbcZE2N0XWd28d5N376bHmG0kzy0N5GdhtojMsD3q5d5rPbMecJ0E4lonvUGhuN5HisRxhBvleekPVPoGJ2Hxzp0DyiJtIlm4LHqks3R+UX6B0xWalm1f56bMGFFaepx5r+c0curUEu9ByhuhXa94N+NwL65a2yYCWTNlppp4riboK580uDn3VW4+vBy68au2zFC8+y++GSxhou1nl/Lc3Xz0eqdRbZ9305Y319387e7z7u3HlDGHu6Wk+X+t3Wp6F6tcJ8t8uE52oohrnZR6MbjeE5D1sk2A4j3b9qs5emnDZhlTtRc2veLSFdOWxi+0hY+aPO3KlBO/yLsqFm7zppb0Gnn35DiGibwbG5RuEE4y/6+VMtNbDqVfRKmmeC/trhP0hVeK9yyfMTXHvimAXwE4GcC7eZgh18kuK3Kd7GIR9TpZWqOdtERG3POwksQ/B+mnEwlH3rnDiutC0oaN3zVleqyVPuIVuOr94nvu9ooW1BFOak3p5VM3z7uUA3lxrch7pXjvUR76XrftenPeHfHuvhSr8UK1nPPKHP5Kin65nFXFe0XOu7cNps2E89O4z8ufnLDC/IIpLHOrB1uZf83f5v/uyKt95q1TWd9bN9zsq5f+1i0DnTEmccRtjyTmGKRPrpPdKUW5TjJVxt8jeV76M5Iukah4l54M28s+gVoLpSuCldbXmnz1aoK0vOWhs9GM+p7W+uPOPuxG/FTZ592vfHm3GY27XeHt98Iq+ugWG/pe77aLvW1P6R1DpfW63TyU9hiu3G2mmnh3duUp7ZFf2m3Gd894Rt6rnztxR3qnnfB2qwXL5Ian8rBht519y2aJifdUQklgUFwnu6BHvU7WWKO517vH7+NeJxM45VLXJcV76kzCAeWJgF9kPU9zzeNc4r4oTfnym53i3cTZTczd+VcDSnn+dj+P/3sj3ifcugXFex6dPcE5cZ1MEL5A13GvkwJDjr0J6acTiYp36cnEbg3BDslCEGZKmnKj30rrS3rb2z0lw+UwqhCI+7w04l05u7KUs2Q8Kt4doKvq4/9bQycq3uO2B0+K6AlwnYyecdQ98Lz0Jyx9g5OweOcOK67JpQ3r70osQQIkkDYCV35xaauCCpw2039DhT0O6Y//zFmLtauc9PhAR731jHj/9u+2TCzyznUykHlZiARIIGUEpNcuiveUGFjasCmZFodBAiQQgsCVX3y9FQFy3o343vvIDbD3URvA/P/2S1bgpf+sC9zTDnv0xXEXD3QE/xN3r8YT96wOKP7ttm//bmuK98CkWZAESIAEAOmnEwmLd+420xV5Jwue4CSQNgLSC67f/H489tVWOJH3bknv5ST3/htZ2OfIDbDPURvhjSXr8PjdqzHm3IG4rW05XvrP2spk+Jp/77BHfxw/aRDuvfYd7HPUhth0cAGP370SjxsRv9LupR3d9p0Z2yYo3rlO+vkQvyeBuAnEvU7GPb809peoeE8jEI6JBEiABLpuquNN7fvh2FdblXZz3stvrMIR7UdtiH1Lov3h21fipWc6xfp3ZmyN37W9Xf67lzdby6J8hw/2xxcnbYYfj33dyak3fx9w3EbYakhfPGZE/N2rqop4rdB2XoLinZ5JAiSQPgLMHIjfJhTv8TNnjyRAAhkhEPdF6QdfeLnbC6tGtO971IbY7zMm0r4eD814F/8tiXYX4Xm3b4vftr7p+bzWC61dNwM7frA/vtS6BX543KvebW1gPj9w7CbYakgfPPrnlXjMEfHFsujXQNsFv98+sch7RtyGwySBpiIQ9zqZRbjSTycSFe/Sk8miQbsifHwcnGX7cez5JBD3GvWDL7zUCt2VNnPg2E3x4UM3xJ+vWY7/PrOmajrL+b/fDrdOMuK9+vfVIvE7fnAAvty2BS7/wivdxLubrmO+/8yZg/D0A6vw0Ix3uvpVuu2C3++QmHiP2x759GrOigRkCfC89OcpfYOTsHiP95G0P97kSkgbNrmZsGcSIIF6CVz2uSWd4t3Z113joC8OxJAP9sctE5d69nt3933v/PfCP3wAv5m4FEv+vaa0H3z377v2ie/6fMiHBuArk7fE9z//v5rtnjB5Syx5Zi3m/m6Fp13ddtEfhyQo3nnNqNe3WI8ESCA5AtIaj+I9OVt261nasCmZFodBAiQQgsAlY5a0KtWV837w8YMw5EP9cfPFb1SNkJtI+UV/3AG3THyjU7zXeNG18nMj3k+YvBUu+9xLNds98ZKtsOTfa/Hgbcu70mY02i6eSfEewqQsSgIkQALcbSavPsDHTnm1LOeVZQJxn5dtY150XlhVUNDQOOSLm2HIh/vj5oted/52P/f++72ZQ/D6i+9jzUobN3/vdZx46dZ4/cV1mH3Dm/jqpds4383720ocdspmeOpvK/Hai2txzFmDsfVO/XDpmCU12z3xsq2x5Om1mPO7t8v9mhdWJ83cKcHIO9MLs3w+cez5JBD3OplPiuFmlWjkPdxQWZoESIAE4iUQ9xOxtmMWtUKpsngf5Yj3Afj1Ra/VFNkXzxyK+254yxHlJlJuIvVrV2q8+uJaDP3QBlizsogVbxSx9U59nX9Xryyi5ROb4LBTNsclYxbXbPerl22DJU+vQbtHvEPrtkl/GpaYeI/X+uyNBEggCIG418kgY8p7GYr3vFuY8yMBEqibQNwXpdZjnm/VzgurncehX9rcEe/TLzQvlnYlv7jfm93gJ/1pGKZf9AoWP726nDTj/d77u6vu7vFDP7wBxl22HdqOWYRq35v6476/nSPeH/jtW2V+Sum21j/tSvFet0exIgnkj0Dc62QWCUo/nUhUvEtPJosGdcdMFlm2HseeVwJxn5cTj37eCONJrsg+9Mubwwjt6Re87Ijsaj/d1DprF0y/8GW86BHv1X/iqav+Tka8f397tI5eWLPdcT/Y3rkheODWt7w3BW2T70pOvMdtj7z6NedFApIEeF7605S+wUlYvHPngC7xThb+7s8SJJBvAt87akErVKd4dyLvXx6MnfbcAL86/6WSyO7MhXe/N3J88l274sYL/ocXnl7lyYnvir2P2H8jzH/kvW71d/7whjj5Bx/AxKOfL7fXeXPQ1f7XLt8BLz61Gn+7dVmXeNdou/Tu4YlF3qUvgPn2Js6OBEggLQSk1y6K95RYVtqwKZkWh0ECJBCCwPeOerZVw+S8dx6f+MpgJ/JuxHvn0VO8X/Ln3ZzvX3x6lfP9oK37YPnr65zSO314I3z54u1w2djnMWjrvlj++npHrBvxbsT5xZ95rsfNgHtzcIoR70+vxl9/0yneOw/ddundu1O8h7Api5IACZCA9NOJhMU7dw5wXVrasDxVSIAEGicQ93l54RHPdIr3Ut7LJ0/YEjvtuSF+ed6S8m8t6dJ27W6+y2V3745fnr8EL85bhc+fsx0226Zvufznv72dA+EPV72Cr/9wCN5+bR1+f9Ur2Hnkhvj65UNw0VHPlreBd9tz2zflX3xqFf5yy1Jn2/nO5Hjd9v17P5igeOc1o3GvZgskIEsg7nVSdvTZbC1R8Z5NZBw1CZBAsxCI+4nY+Uc806pg9nnvPIx433nPjfCL7y6uifz79+zhiPW9PzUQ2w4bgF98d4mzw8yAjQr47k274PrvLsFrL6xx/j71R0Pw6qI1eOIvKxwxf+GR/ynnvFd2cOqPhuKFp1Z2ivfSlxpouzxB8d4sfsd5kkCWCMS9TmaJTVRjpXhvgOwulw/2btTQQEusSgIkQALA7i+Owx4vnlRG8akTt3LE+/XfebEmnstnfwi3X/kyRn9jG/zl5jfw0B1vOmX3OWwzmPo/PHFBue6Bx27hfDbrutdw3Le3x/mH/7tmu6f9eKdO8X6z+YGozuM/O92EZ3eaTlORAAmQQKQEFp6/rCtbL9Ke4mlc+ulEouJdejLxmKCrl1jEu0bbwguWJfaYOm6m7I8E0kQg7jXqu4fNawW6tor89IlbO+L95995oSaWH87+sPO9ibb/3493xqzrXsVj972Ns3+2Kx6//208dMcyp+6+h22G0d/Y1ilrovCm7HmHP12zXfO9Ee/33/y6p4xu+9F9IxNbj+K2R5p8kWMhgbQSkD4vjbbKn3iX3ZQkYfEuO5m4HZviPW7i7I8E8k3g3E892U28H/bVbTBs5Ea49tuLak78x/ePxHXnLsKiee9hu2EbYN/DN8fcPyzFhbfsjonH/hur3ys6dY85Y3s8NvstvLJoNYaN3BjfuGIYvvPpeTXbPf3KYVg0byXu+/Vr3cT7FX/ZK0Hxnu1rRr69l7MjARkCFO/+HCne/RnVLEHx3gA8ViUBEuhB4JxPPdmqdFfOuyPeWzbGtecsrEnrir+04NpvL3TEu3t89oztsfk2/XDjxOrpNka8n37lLjj3Ux21xftVu2BRx3vdxLtWaLuK4p2eSwIkECGBfIp32ZftExbvspOJ0JeqNk3xHjdx9kcC8RKQfhzsN/pzPvF4q/a8sHr4Sdtil5Gb4KfnPFez6lV/3Rs/O+d5LJz3brmMEe4bbFzAywtXV1+7Rm6CM67aFed88oma7X7zqt2cNmff9Gq5jALarvrbPglG3rN9zfCzP78ngSwSkF4n8yjepe2aqHiXnkzc7VG8x02c/ZFAvATi3kVh/CcebYXuynk/4qTtsEvLxrhmQm3xPuVv+zjifmFHl3j3o7RLyyYw4nzCJx6vWfTMKbthYcd7uPemV7rKKN029W/7JSbe/ebF70mABOInIL1OUrz725Di3Z9RzRIU7w3AY1USyAAB6YuS35TPGvXPTvFe2lf9yJO3hxHaPxk/v7zPe3lvx86fRMW0B/bDTybMx8In33X+rvy+2t+77LUJvjVlBM4+9NGa5b81dYRzQ3DPjS972tVtV7d/lOLdz5D8ngSaiID0OplH8S79dCJR8S49mbjPlQDifQUUWmHDSSxVUEM19DgoHBJ4rNxtJjAqFiQBaQJxr1FnHfzPVq26ct6PHLc9dt1rU1x99rM1p3Z1+0cccf98xzuBp79ry6Yw4vysUf+qWeesabvj+SffwT3TXy6XURptVz+YnHiP2x6BgbIgCTQxAenzMp/iXfZl+4TFu+xk4j53fMT7PGiMR+eFeJQZm4ZeDIUJlm2N0Up3bebc28Ap3uM2K/sjgcQInHnwP1q154XVo07+gCPep531n5pjuubB/fG/51c6u8pMO/s/OHvaHnh50Sr8/urF5f8/cs9SfP7MIfjnvUvxv4WrcML5O+MDu26EMw9+pGa7Z1+9hyPe777xf13iXaHtmgc/lljkXTrCl5ih2TEJkEBNAhTv/s5B8e7PqFcHq/WlstRe2tYPABhUWUYrfayylRH27ncja3bSi3ifcc+9vwbw0WLBOvRLhx1WTkx1P1fa/pZW1q0Atujevn547JFHHuh+NuOe2ecD+geeMjePPfKIrzaAhlVJgATqIHDGgQ+3QnXlvH/m5B0c8T71rGdqtvbTBz+GR+5dirdeXYs/3/gSTJ03X1sDI9jd/xsRvv+RW+G5jhVOuaO+tgP2P2JLfPPgf9Rsd/zVH3TEu2mzfGjd9rOHDqB4r8O2rEICJBCMQD7Fu+zL9gmLd9nJBHMLuVK1Iu9Kq5tsZS9XUGdX681E4Iv9i3v1XdN3DBQGQmOFVvrGqiPrRbzfds89X1JQ12joM48/8sjfmvq/ve++7QpF29w0/NPS9hRbWfcD6oqxRx5+effv1Y3ms07hbk/UwCmmDW99Cng5X2FL2SQg/TjYj8I3Dpzb7YXVo7+2I3bbe1NcdWbtX0K99qEDMOVb/8ZzT67wa778/W57DcSEn3wIpx/4cM0651zzITz3xDu461f/7SqjdNt1Dx2UoHjP9jUjsIFYkAQyREB6ncyjeJc2Z6LiXXoycbdXM21Go81Jleme2+6k0SiocSZlxgh4kwNvxqy0OllDt0JhSI859CLeqwltr6AvaD2/Uryb9mfcc89DgHqhWLDOd4W+V6iX2viRpe1jvnDUUU/GzZX9kUBaCMSdpvGNj8/ttlXk0afsCCO0rzqz9i+hXvfwgc73YcX7Odd8GN844KFexPuHnTbvuqFLvJutIq/7e3LiPS1+wXGQAAl0EZBeJyne/b2L4t2fUc0SNcT7ncpSrdp2Iukt5coah0JhplZ6nLLVVK9Q19DTTbQeCuMBfLZbhz4575WpM51/651NWszv7757r0rx7v1Mw15SGblvAAerkkDuCEhflPwAnbb/HOeFVXfTmGNOGYKRB2+Bn53/H7z56pqqm8n8/O8H48ozn8KCJ5bX3GzG7ddtd/jeg/Dta/bE/338QWczmsrvB287AKdfvgfmPfgm/nTDkq7vNdquf+SQxCLvfvz4PQmQQPwEpNfJPIp36acTiYp36cnE7bJVxPudSisj0Kd0y3VXmLC+3/rpfdb0aemDPouLheIgbeseEW0TgTcR+24vs/qId2+UfF2fPq93RtI7U2K6hHplzjucnHZG2OP2GPaXNQJxr1Ff3/+BVkCVxfuOu26McRcPxw67boyXnn8Pf//za3jywTfx1qtryjtAXv+PQ3DlN+dhfi/ivXIHyRFGvP90JE772JxyO5tvOwB7HbwFPv6Zbcr9Tb9kAf77/HvlmwJAt/3ykUMTE+9x2yNr/srxkkASBKTPy3yKd9kNWhIW77KTidtpe4j3UnQdwMCK6LmJups89M6js1zX397Cld/5iPeu1BlVypnX51ra/rRJd6kWefd2VS1nPm6G7I8ESKCLwNc+8tdO8a4ArQH338HbGWG9JQ44uiSsn3sP9/3uJcybuwxX338QfnTGk1jw+PJy+cr6rvp2Px+xzyB852d74axPz8XHjtwGBxy9LXbcrfMG4eG7XkPHg0ux9JU15fa61Ltu+9W/PpmgeM/2NYO+TgIk4E+A4t2fEcW7P6OaJWqI956i3AhyoHzBUwU1vlrkvaqwD7BVZGcOu3uoF9z8dT/xXuvl1FK931na/iJz3htwEFYlgZAEvvaR+1s1rHLkvdpvLm2x7QDsfYgR8ts6EXJz/Oj0JzH/ibeD/kYTRuy9Gb577V5O3U7B/iqemLPUSc0p/fZTjX/ttl/969MU7yHtyuIkQALBCeRTvMu+bJ+weJedTHDXkClZKd5L20O2V0benZx2pRZ361V3ifmKzyuj9G0LL1jW68Wya6tHvdrdNca06SfeTZnau83opd7tJGWIsRUSyBYB6cfBfrMft68R75057+7hiulqfw/edgPsNWpLPHzXK1j17nqnSG/l3e832qQPDjx6OzzRvhRLX13tiP4g/QFom/5YkuI929cMP/vzexLIIgHpdTKP4l3aromKd+nJxN1elZz3mUqrO7XSU3ukzgQYnIaeprQyb52ZH3bqPAJE3j257W9693wPIt67BLx3n/fu+8AHGDqLkEAuCUi/iOUH6av7zm5V6Nrn3a983N9r6LZfP3Z4YpH3uOfL/kiABPwJSK+TFO/+zCne/RnVLFFjt5mZylJtuqh7/DiTb1fK2WnG7DjTdQQQ777tsgAJkEBdBKQvSn6DOGHve7q9sFotbab3tJauyHsU5cwLq7c8cSTFu58h+T0JNBEB6XUyj+Jd+ulEouJdejJxnys193mXHAjFuyRNtkUCoQjEvUadsPefW7XuzHl3jyBpMLGVV3bbLU98JjHxHrc9QjkLC5NAkxKQPi/zKd5lX7ZPWLzLTibu84biPW7i7I8E8k3gyy2zEhPGQcne2jE6sTFKR/iCzpnlSIAE4iNA8e7PmuLdn1HNEhTvDcBjVRIgARIISYDiPSQwFieBDBLIp3iXfdk+YfEuO5m4fZTiPW7i7I8E4iUg/Tg43tHnrzfaI3825YyyT0D6vMyjeJe2cqLiXXoycbdH8R43cfZHAvESYKQ3Xt7sjQRIIHsEpNdJind/H6B492dUswTFewPwWJUEMkBA+qKUgSlziCRAAiQQioD0OplH8S79dCJR8S49mVDeJlDYEe8abQJNYd36j4zq2+df5geeKo/2hRcsq/a5RLdsgwRIoBcCWV+j8mZc2iNvFuV88kBA+rzMp3iX3aAlYfEuO5m4TwJJB5O+c42bBfsjARIggagJcJ2MmjDbJ4HkCUhqq+Rn0zkC6bWL4r0By0o6mLRhG5gWq5IACZBAKglwnUylWTgoEhAlIKmtRAfWQGPSTycSFu/Z321m4fnLvL+PUrdppQ1b90BYkQRIoEyA52W6nIH2SJc9OBoS6Iwqy2q5PIp3aU9JVLxLTybu9uhgcRNnfyQQLwFGeuPlzd5IgASyR0B6naS28vcBind/RjVL0MEagMeqJJABAtIXpainPGboHYOKA9aNVBottlaD3P4spZdrhY7Cmr7zZi4+dnmD49gAwBQALwO4xNPWcABXAzgLwIKKPi4GMLnisxMA/KbBsbA6CZBAwgSk18k8aivppxOJinfpycTtv5IOlnUWcbNnfyQQB4EsnJdH7TqjpWDpkwA1BsBQPy4K6NDQ7UVb3XT382M7/MpX+f4AACeWPr8IwJul//uJd1PMFfu9la05pCzYow6erEICmSYgfV5Kaqu0gJW+wUlYvHO3GdexpA2bFoflOEiABKIhcMyI207SWrVWCPZ50KpDWfZi06sNq92CPcr8X9vWUCjdAmCkZ0SLldKtf5p//E0hRmmi6H8D8AkAL3ii52HEuxu9vxnAw0H75joZlBTLkUB2CVC8+9uO4t2fUc0Skg7Gi1IDhmBVEmgiAp2RdidtxRHlAOZAYXoBxfaZ87/kiPbejjEjfju0iMIoaIwDcEipbHvRxoQAkfgtAFwGwETcBwM4BcAkAKsBhBHvpqy58TjTE7n3G7r4dmu+HbIACZBA7AQktVXsg6/RofTTiYTFu+wbynEbSdLBpA0bNwv2RwJ5JJC28/KY4TPO1sBUV7RrpVrvmn9c3T/idvSI20cprY2IdkS8Asb/acHYab3Y0qTMmIi7SX8x0XPzI3U3lHLc/cR7Zc77gWGi7mZMabNHHn2ecyKBsASkz0tJbRV2Llkpn6h4zwqkWuOkg2Xdghw/CfROIE1PxEbvNuNGKIzTwAqlMH7W/LHTpew3esSMcVpjqgIGQmP6rOfGnlyj7d5ePPUT76ZJN+fdTZuZy5dWpazIdkggGQLS6yS1lb8dKd79GdUsQQdrAB6rkkAGCEhflOqd8jHDZzypAZOvvqRoY0xlesvoETPc9JfAXcyaP3aOt3ApHWcmgCEAZs5aMPbYisaqiXNv+otJo+lttxmveDf//wqAnSt2rAk8fhYkARJIBwHpdTKP2kr66USi4l16MnG7saSDZZ1F3OzZHwnEQSAN56UbcQcwr7C276jKrR5H73b7dCiz20zo485ZC8aaHWrKh7PVZP91Jg1nZJUIvBHbBwGYUMpxN/VMDrzZ7tFE1JeFEO91Rd7TYI/QlFmBBHJOQPq8lNRWaUEvfYOTsHjnbjOuY0kbNi0Oy3GQAAnUT2D08NvHA9q8nLqksLZvS7U92kcPn2HEtom8d4uk+/TqlJ+1YKz70mulgDdbSA4B1IRZC44zOfa9iW2TSrM9gGsBmF1rvLvZzANwPICxVfZ5nxg26s51sn5fYk0SyAoBind/S1G8+zOqWULSwXhRasAQrEoCOSRQSmMx6TIrbBujau0E44r3WQvGqqAYRg+foWuJd9OG6duy0G5y4Is29gqwC03Qrhsqx3WyIXysTAKZICCprdIyYemnEwmLd+420xV5zzaLtJwgHAcJSBKQXnDDjK2c565wcm8vp0Yh3s04zUus0LgRQPusBWMPDTP2qMomaY+o5sR2SSDrBKTPyzyKd2kbJyrepScTd3t0sLiJsz8SiJdAUpFej3CumtripRCVeHcEvJuS43MDEa9V2BsJkECaCEivk9RW/talePdnVLMEHawBeKxKAhkgIH1RCjrl0cNnvGh+OVUrdajfPu5RivfSPvAPKKDjTwvG7hV0/CxHAiTQPASk18k8aivppxOJinfpycR9qkg6WNZZxM2e/ZFAHASSOC/dXPfectLjirx7o+9pyH1Pwh5x+Bn7IIEsE5A+LyW1VVq4St/gJCzeuduM61jShk2Lw3IcJEAC4QgcPXyG+bGksxEwVcWspjLzAAAgAElEQVSz20y4jmrsNlPZiLvjjQam3bVg7PiwnUiW5zopSZNtkUA6CVC8+9uF4t2fUc0Skg7Gi1IDhmBVEsgRATdlpqCKO82c/6XFflM7ZsRtrVqrHls+mrSb0g8uLQHQox2ldPuf5h/f6tf+mBG/HVrUhRfTkDrDddLPWvyeBLJPQFJbpYWG9NOJhMV7tndYkXQwacOmxWE5DhLIMoG4z8vSjyS9bX6QadaCseYXVes+SqJ+klK6LYhI762j0cNnmH3fRxbW9t2s2l7zdQ8yZMW47RFyeCxOAk1JQPq8lNRWeTVIouI961DpYFm3IMdPAr0TiDvS674gCq1umvXcceMasY+oeC/9imuQF2gbGTPrkgAJZI+A9DpJbeXvAxTv/oxqlqCDNQCPVUkgAwSkL0p+U3bzy8NEy8s58n6NV3wfJofdvRHw/OJqyN5YnARIIK8EpNfJPGor6acTiYp36cnEfWJIOljWWcTNnv2RQBwE4j4v64mWe15YnROCySFBd7MxbdYzrhBjCVw0bnsEHhgLkkATE5A+LyW1VVrMIn2Dk7B4524zrmNJGzYtDstxkEDOCbQDMEJY5Nh2k/3n7LvdOYeESU+Jcp93d1JuOs9jr1w159V3HxGbr7mBAFDtZduqPLlOirgZGyGBVBOgePc3D8W7P6OaJSQdjBelBgzBqiSQHAENQEl1X0+EOw7xXs+4AjIJxY/rZECqLEYCGSYgqa3SgkH66UTC4p27zXRF3rPNIi0nCMdBApIEAiy4ocSn39iC5ryPHj7jgVoR61pR+/LLsNUH0T5rwdhDa40vwpz3UPwC2MMPMb8nARIQJiB9XuZRvAsjR6LiXXoycbdHB4ubOPsjgXgJBIj0hhKffqMPutvM6OEztAZWmL3XPW06+7rXetm1S4Cj277vGmhRwMBZC8bWfIIwOrrdZkT5+fHl9yRAAvIEAqyToTqltvLHRfHuz6hmCTpYA/BYlQQyQCDARUlUfLr7vPv9IJIR75UvnPqlttT6PkjazTHDZzxpRH4E+7yL8suAS3GIJJA7AgHWyVBzzqO2kn46kah4l55MKO8QKCzpYFlnIYCTTZBA6ggEOC/Fxefo4TPMr6EO6e0XVuMU7+4vrEr8cFQVA4fiF8AeqfMhDogE8k5A+ryU1FZpYS99g5OweOduM65jSRs2LQ7LcZBAzgmEEp9BWJT3bVc4edb8sdPdOiUR/SSAQd3a0fpYpdQkExmvaP/OWQvGjhk9fMZMAJ/1fmci+1rrNih1R0Wd5QVV3Gvm/C+ZGwjncPPww+wLH2SepTKh+HGdDEGWRUkgowQo3v0NR/Huz6hmCUkH40WpAUOwKgkkRyCU+AwyzKN2ndFSsGBEereXSD0vnLo560bEjzQ57lo74t2bA1/ex71yH3g3x92tZyLqAJYDcHLmK194dV+OLdrY6+7nx3pz7INMx69MKH5cJ/1w8nsSyD4BSW2VFhrSTycSFu/Z3mFF0sGkDZsWh+U4SCDLBAKcl6HEZ1AWbuqMV0i74t19IdX7txHv3hx4b1pNZU67+3dZ9Ct16F3zj2t3c+Kr9RlRyozBEYpfAHsERcxyJEACQgSkz0tJbSU0xdQ1k6h4Tx2NkAOig4UExuIkkDECASK9ocRn0OmPHjFjHDRu9EbfkxDv5S0pK1J4gs4jQLlI+AXol0VIgASECARYJ0P1RG3lj4vi3Z9RzRJ0sAbgsSoJZIBAgItSZOJz9PAZJkVlJErCudY+7Z70l0qic2YtGDvKkzbT7fta9dzIu+cGwmknInNFxi+i8bJZEiCBCgIB1slQzPKoraSfTiQq3qUnE8o7BApLOljWWQjgZBMkkDoCAc7LyMSnJ/d9edHGof3W9V1c7L/OvMDa7YXVoo3xloVxqvKFVYXp5oXX0gunY7xwNdBh25hesDC1Avrywtq+497vu25owYL5IahBEeW6u92G4hfAHqnzIQ6IBPJOQPq8lNRWaWEvfYOTsHjnbjOuY0kbNi0Oy3GQQM4JhBKfYVm4O70AWFxY23evmYuPNS+WRnqU9po3L8wOBdSEWQuOqxT4kv2H4sd1UhI92yKBdBKgePe3C8W7P6OaJSQdjBelBgzBqiSQHIFQ4rOeYbq/bmq2d7TW9j00SgFvhLvdf90DzraTWt0067njxtUz5hB1QvHjOhmCLIuSQEYJSGqrtCCQfjqRsHjnbjNdkfdss0jLCcJxkIAkgQALbijxWe/YPHu1Ly7aODaCLRtRStMx+76bLSOdPeLrHW+IeqH4BbBHiK5ZlARIQIKA9HmZR/EuwdnbRqLiXXoycbdHB4ubOPsjgXgJBIj0hhKfjYzejcCbPdmV0uP/NP/4mxppz1v3mBG3naS1Mukxg2KKuLvdx8ZPihXbIQES6E4gwDoZChm1lT8uind/RjVL0MEagMeqJJABAgEuSrGKT08OvKHXrpVqM3u014uytION2SO+tJtM5DnulUONlV+9nFiPBEigNoEA62QofHnUVtJPJxIV79KTCeUdAoUlHSzrLARwsgkSSB2BAOdl7OKzlN5iouTmV1QdEa+AmZYq3jlz/pcW+0EcM+K3Q21d+KwGTFqMuwXkHLNrTRTpOD7jCcUvgD38ps/vSYAEhAlIn5eS2kp4qnU3J32Dk7B4524zridIG7ZuD2NFEiCBMARCic8wDfuVLe3D3gpgiFvWvNSqNTo0lCPilaXbta0cga6ghyqFFudl1K5jHhSmmi0l/fqL6PtQ/LhORmQFNksCKSJA8e5vDIp3f0Y1S0g6GC9KDRiCVUkgOQKhxGcUwzSR+NI+70akjwzQxzwNtJt93hOItFcOLxQ/rpMBrMsiJJBxApLaKi0opJ9OJCzes73DiqSDSRs2LQ7LcZBAlgkEOC9Dic+oWZitHtcPWN+iNFqUsss/5qS1tVwrdPRZ06cjyq0m65hfKH4B7FHHEFiFBEigEQLS56WktmpkXmmum6h4TzOYIGOjgwWhxDIkkF0CASK9ocRndklENnLyiwwtGyaBeAgEWCdDDYTayh8Xxbs/o5ol6GANwGNVEsgAgQAXJYrPxuxIfo3xY20SSJxAgHUy1BjzqK2kn04kKt6lJxPKOwQKSzpY1lkI4GQTJJA6AgHOS4rPxqwWil8AezQ2GtYmARIITUD6vJTUVqEnE1EF6RuchMU7d5tx/UTasBH5H5slARLoTiCU+CS8HgRC8eM6SQ8igfwToHj3tzHFuz+jmiUkHYwXpQYMwaokkByBUOIzuWGmtudQ/LhOptaOHBgJiBGQ1FZig2qwIemnEwmLd+420xV5zzaLBv2a1UkglQQCLLihxGcqJ5nsoELxC2CPZGfD3kmgCQlIn5d5FO/SbpGoeJeeTNzt0cHiJs7+SCBeAgEivaHEZ7yjz0Rv5JcJM3GQJFCbQIB1MhQ+ait/XBTv/oxqlqCDNQCPVUkgAwQCXJQoPhuzI/k1xo+1SSBxAgHWyVBjzKO2kn46kah4l55MKO8QKCzpYFlnIYCTTZBA6ggEOC8pPhuzWih+AezR2GhYmwRIIDQB6fNSUluFnkxEFaRvcBIW79xtxvUTacN6/e/ZUzdrV8o6xHymodt2v/6tVvP/Z0/bvFVBTeLn5EB/qPu80M+etnlb0ucRFNqV1u3OuazUKGiMctYAoc+jWjd2v/6tSfNP24LrEtdhXo8Svi5HpFnrapbi3R8bxbs/o5olJB0sSvE+/7Qt9Ijr31QNTJVVSYAEqhMIFTmOAqI5v6No19tmhOtHKH5RrpNRM2T7JEACwQhIaqtgPUZfSvrpRMLiPds7rEg6mLRhu0XeT9u81Y22R++i7IEE8kMgwHkZSnxGQaa5xHu2rxlR2J9tkkAjBMwT+Eb1QYB1MtQQJbVVqI4zVDhR8Z4hTlWHSgfLugU5fhLonUCASC/Fe2NOlDi/xobP2iSQbQIST+YDrJOhIFFb+eOiePdnVLMEHawBeKxKAhkgEOCilLj4DBl5X6EtNUbZ9lRAjQxqgrSkzQQdL8uRAAkEI0DxHoxTo6Wkn04kKt6lJ9Mo3LD1JcV7lCwkHouFZcPyJJAHAgHOyyyJd0e4A+sXA32GKlvPBDAwiJ3SIt4D2CPIdFiGBEigREBCH0ifl5LaKi2GDhAICjXUhMU7d5txrSVtWK8XSNxZh/IqFiaB5iGQJfG+HNCLtWVNKEXehwAYFMRU6RHv2b5mBGHNMiTQ7AQo3v09gOLdn1HNEpIORvHegCFYlQSSI5Al8e5Q0pY6VNn6gTDIKN7D0GJZEiCBRghIaqtGxiFZV/rpRMLiPds7B0g6mLRhvU4n8VhM0onZFglkhUCA85LivTFjhuIXwB6NjYa1SaDJCEjoA+nzUlJb5dWciYr3rEOlg2Xdghw/CfROIMATsVDiMwreIV9YzXTkPQp+bJMEmpmARFptgHUyFGJqK39cFO/+jGqWaFYH+/k/pk1/7OV/mXzZyI79PvDRxaN3//wSy7KcH6Cxbdv5kSnzt/m/+693AGHKetvqrQ33u1ptRwYgIw1vO3B759d683oEuCiZXzV1fr044DEHKP36acAKfsVSLt79+Ijz8OOV1e+57nat/1m1odS4Jdddincpq/TejvTTiUTFu/Rk4jFBVy+S4j1KFhKPxbxsT53xpfYHXrg/jGAJbZqv7Xc6TvnI6aHrsUJ8BGxbt0leROIbefCeIjgvxSP1fuJdQ7VZ0EM1cFLnzHUHoFrM/xRwkw21WEFP6o1KAznvovONwB7BnSHhklx3EzZASrqXXncl9IH0eSmprVJiNgQIBIUaasLiPds7B0g6mLRhvV4gcWdN8R7qvGqKwtIXkaaABoiKWcOsQryvANDRjaXG8v7riuPe71eY2iXgO4X78OvfHDf/tM3Ha1jddp1R0OMAlJ+upUe8Z/ua0YiPU7w3Qi8/dZth3ZXUVmmxvLTGo3hvwLKSDiZt2DSJ972229cZzpOvPBaYNiPvgVElVrAZLiIRwI1avJso+vTKcfd7357WQ7wrTO+3tjhhbd+CKd99v3cFE5kvC3qK9wg8IWSTYcU7192QgDNSvBnWXUltlRazSj+dSFi8c7cZ17GkDet1WInHYvVE3o8b+RUcstMnyqLdXEzmvPg33D7vN77nE8W7L6LECzTDRSSC8zJq8d7DL3qmzXQVUQrTba2WMG0m8dPJdwBBxTvXXV+UmS4gve5K6APpdTKP4l3a6RIV79KTibu9ZnWwIBeRsw/8Ll559+UeQt2I8k36b4JpD/2oV3NRvMftzeH7k76IhB9B9DUieCIWu3ivpBTzPu/i843e6unsgetuOu0S96ik112JtFrpdbJZtVUYX6J4D0OromyzOpjfRWTjfpvg8qOm4syZp1Sle82YG3D+3ePx3vvv1qRP8d6AY8ZUVfoiEtOwQ3UjfVEyb4t2vicqd/i9sErxLsc6yZa47iZJPz19S6+7FO/x2Fb66USi4l16MvGYoKsXSfEeJQuJx2Jetn4XEZMes9f2++FXj15b1SRGmD/58qO95sBTvMftzeH7k76IhB9B9DUiOC8p3hswWwT2aGA08Vbluhsv77T2Jr3uSugD6fNSUlulxY7SgaCExXu2dw6QdDBpw3odVuLOmuI9LUtAesYhfRFJz8wiHQnFewN4o1wnGxhWLFUp3mPBnPpOmmHdldRWaTGo9NpF8d6AZSUdTNqweRbvS997A//3xxPx+ruvdrPeJ3c9HJMP+3GvFm1f9BfcNu/XuOLon2GjfhuXy658/z2ce9cZOH7kV7HVxlvhBw+04aqjr8WWG2/VgIfUrlprHPV29p/Xn4p8zJVja4aLSL326KVekuJ9BaAXa8sar2x7KqCG9thlpsbAudtMBJ4QssmkxTvX3Z4G47ob0okDFpfUVgG7jLyY9NOJhMU7d5txPUbasF5PlHgsFiTy/oOjpmKTfptg4/6bOi+lvvrOy1VPiG033R7vrn0X7619B+++/y4uuHt8j3K9pc24F5GzDvgORg37lFPXK77dz6p1HkS891Zf6gyneJciGW07EZyXSYr35dpSxwLrFwN9hipb3+HdDrI3kukR79m+ZjTirbXEO9fd4FS57vZkJaEPpNfJPIr34F4arGSi4j3YENNbqlkdrNZFxLyIWusl1VpWrFUnrHg37U+87zvYabNh+OiOH+8WhfYu2I++9IgTeTdR938seQhbb7Itfv65m7Fhvw1rRt5NdGXCn053XrDdc9uWHlF7t++/Pj/bmab7BKAyKhNmHFtuvDUq2zNte8fijt187j6JcD+L6omB147NEHmP4IlYkuLdmM8R8Mq2p7i/shpkhU2LeA8y1ryW4brb/Wkp110ZT5dIq5VeJ5tVW4WxKMV7GFoVZZvVwdJ4EfFG4yvTXipF80X3noOvf+QMnLzfNxzBb47zRk2qKt7Nd+fcdTouOHQS9th6z/INgqnrHt72zWeT7vsuvlb63pt+E2Ycph2T2mNuNn7wt0mYcsy12HKjbRyR7j5xMGNf+t7rTrklb7/AtJkGzuVaVaUvSmnYbaYeTBTv9VCTrcN1d5izZnPd1W3bDty+Vcq7KN6lSPbejvTTiUTFu/Rk4jFBVy+S4j1KFhKPxbxsw1xEdhm8G075yBlO9Wlzf4TX3n2lm5kaibxX5ry7gtwv4n31wz92ou0mOu2WvfSwK3F5+8QeOe/PvP5U1Rx57yRqPYptZBwf2eHjzoXK3JS4Nw9vvPcGqo3d5OYvXfkaxXsEC0AE52XSkfe6KKVFvEdgj7p4JFGJ62536lx3ZbxQQh9In5eS2kqGUuOtSAeCEhbv3G3GdQlpw3pdTeLOul7xbsS5yWnfqP8mOPug7/bIb29EvHtz3r3j8xPN3hdW/cT7Xc/+Ef966e9VU2W8fd746HX45b9+5nwU9CbCbxwm975SvJunBt7D7KlvovLmiPol28rlqxnSZhpfsnu0QPHeANQo18kGhhVL1TDinetu14YD1dIV3Q0Lqq3/XHdjcedeO6F497cBxbs/o5olJB0syotSkuLdvEzlvpBaTajHId6NsHYFuElD8UavzcJu/p5y9M/rjrx7HaS3XWvCjqPaRaTaTjmmf+560MCJHG9VcfH+7GmDxR6h10Kx+/XL6u1DdL5RrpPxukH43sKId667XeKd6254X0u6hqS2SnouXQFa2ZftExbvspOJ20iSDib92MnLQuKxmLe9MBeRo0Z8Fnttvy827r8J5r7wAO6ef2c3M0Ul3s0Lphd8og377bC/k8tuDjeH3ESvLzviKmenGr+cd5OOctHsc3HZ4VeUc95NW94tKc3F4cW3FzmfGfHuzXlvZByV4r0y5930O+vZO5wUIKbNRHP2R3BeiorZaGYt2qrofCOwh+hko2yM6y7XXeNf0k88JfSB9Hkpqa2iPCeTbDtR8Z7kxCX6blYHC3MRMZwP2ulQB/fcFx/ogT0K8W46cdNYTFrJ6A9+Ds+8Nq8s3r27zbi7x5g6tfZ5N9F5N12l2m4zbrT9qVc7nPm5aTONjqNSvJsXZr27zbgpM+Zz94Vd06ebzy/h4721IX0RiXq89bQfQaRXVMzWM6eY6zTbfCPDy3W3+m9zcN1tzOUknsxLr5PNqq3CWJLiPQytirLN6mBhLyJ7bbevQ+7JVx4TEe8NmIxVBQlQvNcFs9nEbLPNty6nCFKJ624QSvkvI73uUrzH4zPSTycSFe/Sk4nHBF29SIr3KFlIPBbzsuVFJG5PS2d/0heRNM4ygvOy2cSs6HwjsEca3a7qmLjuZsZUkQ5Uet2V0AfS56WktorUGCEal346kbB4524zru2lDev1KYk760bEe2/+XU/aTIjzhUUjJCB9EYlwqGlqWlTMpmliNcYiOt8o18m0swwr3rnupt2i9Y2vGdZdind/36B492dUs4Skg0V5UYpLvP/hq/fiz892fyHVD+9ndv8sPv/rI3oU6+0XVv3a5PfxEGiGi0gEJEXFbATjk25SdL5RrpPSE5dur5Z457orTTrd7TXDuiuprdJiTemnEwmLd+420xV5j46FxGOxIJH3vbbfr67z5MmXH6V4r4tcspWa4SIiveBG8QuryXqBb+/C4j26ddJ3JgkXqCXeue4mbJiYu5dedyX0gfQ6mUfxLu0miYp36cnE3V6zOliti4gkf0beJWlG05b0RSSaUTbWagSRXlEx29jsYqndbPONDCrX3cjQZqph6XVX4sm89DrZrNoqjCNSvIehVVG2WR2MF5EGnCZHVaUvImlEU+2i9Oypm39eKXWDBRy+2/Vv/tNv3Au+scX22sa9FvD13a5/8xEAyq+O+/380wb/DtDHu39rrb+w+y/e+kPQ+t5yz522xUdt4JfKwhF2Ue+vYE0oDLCP2vUnb71TT3sB61C8BwTlV4zrrh+h5vheet2leI/Hb6SfTiQq3qUnE48JunqRFO9RspB4LOZl+/N/TJv+5qplJ0XJe+/t90W9j4OjHBfb7iIgfRFJI9vK8/L5b22+aXGt9TszVqXtR4b/4q3JfuOuV7w7wl3jA67ALonv2VrrU+oR8F7xPvy6N1/2G7fQ96LiPcp1Umi+kTXDdTcytJlqWHrdldAH0uelpLZKi3Gln04kLN6524zrWNKG9TqsxJ21t71XV7zcallqUlpOCo4jGQLSF5FkZhGu104BrCbZyp5iaXWViWIbIeyI+jXW3Rr2FCOsXcEOC2ejqCZD6QMArBhx/ZsDn//W5gNN2dJnqBZNd9tTsO/z3iB0RuKBEdcv+6L51xuZd9sp9f13ADt2zk7dZspXi7yrjfXx+j11GxT+1xXh7yxvapaeMvzebcd7M+El10u5FfNP2+IlAJtCq3+bG5H1a/BppVRnm1o9bD4z/63GzzytMN+ZJwZa6X8orU41HIM+9Qhn3XSX5rqbbvvENbpmWHcp3v29ieLdn1HNEpIORvHegCFYNRECzXARqQS74NTNJ5rPjKA2wllr+3Yj1muJdyM+tYX/edNm5p82+DZXBJeEbNUUHNOXVqrNFd/VxqKVtUc3YQ4cp7X6pSv6S4L9dgs4zhXB3rSZsngH4BHWznhK4/671vqcPgNwv3PDUSrnTbVxbxZqlDPivSy2vU8Pym0q/K/Q3z7NR7zPBtS9B25z6/EPv/rFSRrWYTGk/CRyXtXqlOI9VeZIbDDNsO5KaqvEDFXRsfTTiYTFe7Z3DpB0MGnDdouKnbZ56+7Xv9Uq5cS8iEiRzHY7zXAR8Z6XbsqMBd1mct07o83WcUY8hxLvpw5+2I3Q14qwu55RK4pe2V8tT/Km7PQm3l2x7y1f1PoD3rx4Z75V8uQrP6/424j3/yoLHzdPKKqWVeoqZW4WtPpl5ZMLT+TduQH5+Da3HvnwG1/+hedmyPedg2yfZV2j57qbF0s2Ng/pdZdpM43ZI6naiYr3pCYt1a+keJcaUxzt8CISB+X09yF9EUnjjL1PxNyoMYCBnrE6wtTqq9+tFTnuGXnf4r8mSu3mrZsIvtL2f/zy571CHwV1g7bhRMUr89+7p7A4I3Ui372J92qiWWt9uDfCXUu8O08IPJHwHuL91MFOaoyJ1leWLafylJ4Y9CLenRdtzQ1AxTsEFO9pPHE4psgISK+7Emm10pkDzaqtwjgNxXsYWhVlm9XBJMX7e584sAELsGoYAhv/7aEwxX3LSl9EfDtMoID3olSZb26G4wpvawCmesW7N12lh3gPEHl3BGpR3aYK+njvy6WdqTTWHpVpJi4abwqLN/femzteLW2mmmgWi7x7xHvQyHuVdB8n8m6eeHi/C7LbTwJuE0mXXHcjwRp5o2lfdyneI3cBpwPp7IpExbv0ZOIxQVcvkuI9ShYSj8W8bKUvItKLW9x+kIX+zE2SNOfmEO+dqX2VorgslktRZ++LnyaNppSvfo4nd7y8VWTQnPfKmwV3DErrG9ycezMOT8777ZalzrBt/VM3Iu8dR+jIe2eufuM57x7x7pfzbl6creRXGvdspfVVB2z7W+vhV79kM+e9sVUnivWgsRHls3YUnKXXXQl9IK1fJLVVWjxL+ulEwuKdu824jiVtWK/DStxZU7ynZQmobxxZuIjUN7N4apVSUczuMk7utturV4wWlPqfDcw2aTVa6V8orT5mIt6qv362tLvMh4LuNuO2X7nPu9J6kpte46bRVO5a0/Wiq9lQXl+ptbW/iayXxtdtn3f3pqNa5L0rr9/ZGWaFgv6laavai6KeVJ3Kcivme8S7mVe3tJ7SbjMmpcabluTl5950QKsVpbmWc+jjsX46emHQJB12CDMKrrthaEUTGK1vBPK1pDUexXsDNpK8O5Q2LMV7A4bNYVVeRFJjVNF9z+OcVbW0oWr9V5RreL7eLS4P2Oq3/1s2+bDAP3IVJ5+o+6J4j5qwfPtcd+tjKqmt6huBfC3ppxMJi3fuNuO6iLRhva4n8VjM2x4vIvIndtQt8iJSH+EIzsuGxWx9Mwlfq8cLup4oubc1n3INz7e7eL/1VJPGFH422a/BdTd7NszCuiuhD6TXyTyKd2nvTVS8S08m7vaa1cF4EYnb0xrvLwsXkcZnKd9CBE/EGhaz8rOMtMVmm29kMLnuRoY2soazsO5KpNVKr5PNqq3COCLFexhaFWWb1cF4EWnAaRKqmoWLSEJoeu1W+qJkflPU/ORpGuca0Ziabb4RYQS47kaGNrKGs7DuUrxHZv5uDUs/nUhUvEtPJh4TdPUiKd6jZCHxWMzLlheRuD2t8f6ycBFpfJbyLURwXjabmBWdbwT2kHeaiFrkuhsR2AibzcK6K6EPpM9LSW0VoXlDNS0dCEpYvHO3Gdf60ob1epXEnTXFe6jzNHWFs3ARSR20aAYkKmajGaJoq6LzjXKdFJ11BI1RvEcANeImue7WB5ji3Z8bxbs/o5olJB0syotSlsX72ilXYN2smWUbbPDDK1HY76MNWC1Y1eKj/8S6O36PARMnY+21Pyfgf0sAACAASURBVIUaMhT9PveFYJVTWIoXkdQYRVTMpmZWtQciOt8o18m0s4xTvHPdlfEGrrv1cZTUVvWNQL6W9NOJhMU7d5vpirxHx0LisVgSkXdzAdFLX3cENAZsAHvRQqw+92wMuHBiLALenbMZB8V7z8VM+sdC5JfLxluUXnCZ896YTSKwR2MDirF2XOKd666cUbMg3iX0gfR5mUfxLudVnS0lKt6lJxN3e83qYLFcRNasxprJE2Ht+9FuEW9zYTFH/wnnAqUy6x/5h/OZNyqv334Lqyd8C/Z/l8DacQg2mPIT6LfewtqpV2DA5O9DbbY5vNH14tNPYe0106DfWYHC7nug79Gjse6uWbBa9sb71/3Uab/f/30T9rwn0PfYL5RvHsx4+hx4UI+bCdP26vO+7dTrO3pM+Saksh9zY2I+c8v22f9jnTcrgDN/ty8znzUTL0T/8ec635l5FD60J96/7VaogQOxwRXTYA3bpeYpkIWLSNznb5D+Ioj0ikaig8wh4TLNNt/IcHPd5bprnEs6aCLxZF56nWxWbRVm8aB4D0OromyzOlgsFxEA7//x93j/mqmO+HXEesXhFfJGLK/5/uROEbv99t2Er2lHL1mMvseM6VW8l+sP26WbsPemzbhtmfEYQb32xz9A/+9c4NwMuId749D/m2eh8OE9nbGYwxXq3n66PU0olVVbbo3+p3+zV/FunkD0OfhQh4sZk/3YP8tPKKq5NMV7fSe69EWJkff67MBa8e02w3W3dtAkj+suxXs8q4v004lExbv0ZOIxQVcvkuI9ShYSj8W8bOMS76ZPbwTdjWK7wtlE1h2BbHLgS1F4E6lWm2/RTaS7YzdCudfI+0+vdiL0lVF5r3g3bbz/u1sw4NvnORHz9Q/N7XFj4Y3om3SfHhH+Gv24Zdea73/wY6z9yZSakXdzQ2BuBky03RuVrxV9p3ivb3WI4Lxstki06HwjsEd9jpFALa67XHejiLxL6APp81JSWyVwqlbtUjoQlLB4524zrpWlDev1Hok766TEe7ezwJNK0/fQT5TTYrxl+p05HoUddoAjgEtCPKh4d19QrRTc3V5YNWO48ofo98UTsO5PM6umzFRGwivFu7efyrLlG4wLJ/Yq3r03IRTvaVmeA41DVMwG6jHZQqLzjXKdTBaTf+9xineuu50pOtXSFd20S667/j5bbwmKd39yFO/+jGqWkHSwKC9KWRTvtVJS3LSVfuO+Vs4Br4w2V0bYa4l3r3A2UfRA4r2UzoOlb8Be8mKPlBnTl1/kvVY/vUXezZzcaLvpwxt5937HyHsDJ3Q8VUXFbDxDbqgX0flGuU42NMsYKsch3rnudn/iyXU3Bseu0oWktkpmBj17lX46kbB4j26HlTgMJulg0ob1zl/isVgSkfduL6d6Umj6HHOs8xKr93tv7ri1y65OVN5NqXFFer8TT8LqC8/r3K2mSi56UPHu9uXmnFf6ml/Ou7cfv5x3J/+9lNe+7uYbnZx+c5jcy74nnuxwYM57dGd7BOelqJiNbuZiLYvONwJ7iE006obiEO9mDlx3J6KZ1l0JfSB9Xkpqq6jPy6TaT1S8JzVpqX6b1cHiuoi4FxLvPu8mLaa833rFbjPe71xRrFesKO82Y3LZ3ZexzA4t/b4wFsVn/l1+kbSWeH//7j87L86W2/fk19fac97dbcavHzdS32O3Gc/WmGYO/Y7/Mor/fqrbbjNqk01gdtpxd9PxvjRb6ePMea/vrI8g0isqZuubVay1mm2+kcHlutu5A5l3t69K2Fx3w7ufxJN56XWyWbVVGOtRvIehVVG2WR0szotIA+aJrGqttJxaHVZGshodWNj+TX8U7/VRl74ocbeZ+uzAWvHtNpNW1mHXPa67wSxJ8R6MU6OlpJ9OJCrepSfTKNyw9SXFe5QsJB6Ledk0s3h3Izu9/dKrN+pvuJX3bh+wQVgXq1o+7EWM4r1+7BGcl80WiRadbwT2qN85Yq7Jdffb3X7LoxI/1936HFJCH0ifl5Laqj4q8rWkA0EJi3fuNuO6iLRhva4ncWdN8S5/MsfZIiPvcdLutS9RMZuaWdUeiOh8o1wn086ymcV72m1Ta3xcd+uzHMW7PzeKd39GNUtIOliUFyWK9waMnJOqvIikxpCiYjY1s6J4j9wUFO+RIxbvgOtufUgltVV9I5CvJf10ImHxzt1muiLv0bGQeCyWpch7v8enhD7zlAK0BoL+G7qDOiu8v8+EOmt2r8aLSH0YpRdc5rzXZ4c41snGRhZ97bSLd667PX0gC+uuhD6QXifzKN6lV4hExbv0ZOJur1kdLAsXkQGPT4WGhoLK7L9r9hkPive4z+ru/UXwRIyR92RNmtneue7Gs54327or8WReep1sVm0VZnGieA9Dq6JsszpY6i8ij01Bv8eneqzl6qXKf90i6fz+fSPe92XkvYFTtOGq0hclRt4bNknTNpCddbfy/jSd62uXI3UfX7OtuxTv8Swp0k8nEhXv0pOJxwRdvUiK9yhZSDwWy1LaTN/HpqL/Y0a817poZOPztfuOx7p9x4u4dRYe34pMVLiRCM5LRt4bsFEE9mhgNPFWTbt457rLtBmpM0JSW0mNqdF2pANBCYt37jbjOoS0Yb2OJnFnnSnx/uhU9HtsSsalO5yo+7r9KN4bXTRTVp/ivQGDRLlONjCsWKqmXrxz3e3hBwya1HdqULz7c6N492dUs4Skg0V5UWpG8d73UW/aTANGrlK17z5nQg0YJNaovWIJ1v/75h7tGeFO8S6GOS0NUbw3YIko18kGhhVL1SyId6673V2B4r2+U0NSW9U3Avla0k8NExbv0e2wIo++Z4uSDiZtWO9omy1tps+/piKqi0i/fb+F/p+8Qty91tx9KtY9/etu7Rrhvv4jjLyLww7RYATnJcV7CP6VRSOwRwOjibdq2sU7192e/pAF8S6hD6TPS0ltFe9ZGl9viYr3+KYZTU/N6mCZuIj8a1okRt/wy/c77a669dNi7W9y/hq8/9ClWPvQpd3F+0fOpngXo1xfQxFEeine6zNF09fiust115wEtq3bth24favUCSHxZF56nWxWbRXGphTvYWhVlG1WB0v7RaTwz6no+69pkeS8b/yV+512V/3m02Ltb3rBGke4r5l7KZTnNdt1HzkbxY8y8t7AKdpwVemLEnebadgkTdsA112uuxTv2T39pZ9OJCrepScTt1klxXuULCQei3nZpv8iMg19/umNvNfausydVfDvNzrhPqfSylsO8yAJXr+zUvfyAy9cjbVzL3PEu/f79R814v1sEbfOwuNbkYkKNxLBecnIewM2isAeDYwm3qrZWXcbWw8r10fz90YndD7x7Fx3ZdrvWncvAZywSefRbOuuhD6QPi8ltVW8Z2nt3qQDQQmLd+4245pa2rBeF5J4LJYl8W49Ep143/jETvH+3s1y4n3QRauxxoj3B3uKd3t/ive0LL5C46B4bwBklOtkA8OKpWraxXvXuisjrrugamx8Yqd471x3ZdrvWnd7ineuu7G4dM1OKN79+VO8+zOKxcGivCg1pXh/5OpI9nkvbD3Sabf4+tNi7Q/63iqsedAV712JM+v3Pwu8iDRwgqazKsV7A3aJcp1sYFixVM2EeOe6280X+MSzvlMjn+JddoOWhMW77GTqc5P6a0k6mPRjJ++sJB6LZSry/o9pMFGgeo/CNns6VYuvPeX8aw0aAmvgjli/ZK7ztxowEIWt90Tx9aeg16xAZXn3e7e83zg2v3g1Vj94GVbP6f7CqhHu9scYeffjF+X3EZyXFO8NGCwCezQwmnirpl68c93t4RBZEO8S+kD6vJTUVvGepf/f3pmAy1WUef/tm42E7AlLTFgjKCjLp6AQwASEsKMO+ikOI47KFlAh7OqQRWWRVZFVnU9mUHHcWQQChCjrKCiEGZB9C7KYhOx7bn9Pnb6n7+m+3X22f52qOvXv5/GR3K7197711v9U1akurjaj4r24buqpyVcHs30SqTz8Xen3sFp5z/YZftxdQcZlNx4c/P/gyV8P/rd49pDg3wO2/YgM+9ydsvw/DpH1L/9RmtOH34fp41ox+vxVsvoPSrx/uyHpxr2/KtW9vxKXPdH3LkwiiTpScCINK70U7wXbsCzV2R93vyf9Hs6+aGJP3P2KVD1aNEHszKPjpK/aKk2sonhPQ6spra8OZv0k8tB3pSuPeP98j3j/cU28D5lSE++LZvWK9+HH3SnLbuwR703plXhX34fp41xszIyaeF81r1G8q1X36iSK9zh+Or9HT0q8bUantcpdtv1x93vSlUe8WxN3vyLVSf7seFK8FxM30LsTRsU7ujPFmKC3FqR418kCsS0WZevEJPJQ78p7uNTZ/P9hn6J/H/TeI2XIIRcHdw+sefym+kr7gG33q4trdYxmk92PlbWP3yQbl7wig3Y/tiF9+P3KO8+WNY9c3fZKybD+MTNXyup5F8jKed9uuCqye5KaRCjeix7X0fo0jEuuvOcwqAZ75GhNsVldibvtXiftFH/TxF0Vl7uXvBLEYPUJ43Rz3G0V36NX8TLu1ggh9AF6XCK1VbGjtH1t6IUgw+Kdt82EpkYbNupCiCdrl8S7PPg9qUTEe9LB22/kNjL69KeSJk+UbsWd58jqh7/fMe1ms1bKKiXe72tceQ+E+z4U74lAu5OI4j2HrXTGyRzNKiSr7eKdcbevG/C4YrahQfEez43iPZ5R2xRIB9M5KXkp3h+8KmK3znppwHb7ysh/vbOefsn/O1TWv1R7ObX2idNbrb/fbPaKBt/pW27ta5Vu1X1KvF/QkL66z5cp3nOMT0uzxjmTpc3O3Cxof3XGycw9LCijE+K9Ie52jp8DtttPRv7rHR3ibrb42zfuHiLrX3qgj5V6465aNOm9551xtyCH7lANUluZ702tBejdCcPinbfNhI6FNmzUYRHbYtHybJ9Eqg98TyotJ5HWw1jdDjNg3K7Sf9yuMvTQi2XJvx8q6xrEe7bhv/k3V8iav/5E1vy1dvxm/Ru122maPyqdEu4r5/YV75V9ufKejT4ml4ZxCRWzmF5qLQXaXw320Np5ZOGMu8loMu4m4xSmQugD9Lgso3hPZ5X41EbFe3zz7E7hq4PZP4lcJZUHrpKqVKUilcT/r1bgR33xDnnnR2rl/YHE+drVs/m3lsvKuRfKirnqLHv7drRNt++XpbLvlyGDgNu32TBqWOmFitlsvSo0l2/91QaXcTdZPGfcTeeCiJ15dJz0VVulsRzFexpaTWl9dTDbJ5Hu+68SeSD9VZEDt9tPRn/pDln8Q8zK+5bfXiEr5l4gK+5tXFFvdrm26fb9inTtR/GeY4jmzoqelBKcwcrdZssKoHgHGYRxNxlIxt1knMJUFO/peGVNjd6dMCre0Z3JCjVrPqR418kCsS0WZeTEJKIEfMKPOjIz7PCLpDK4dnxm8Q8Pk3UvRs+8JyyoKdmWFyyXje+8KhvfeSX4Zvnt5wZHZ/qI9wuWy4p7L+wr8vf7MsV7NvSwXBrGpW9iFtpfDfaA+Yrughh3kxFm3E3GKUyF0AfocYnUVulo6EuNXggyLN5520zoKmjDRl0Q8WTtlHj/41VSjYj3dleXhX1SZ91HHHlx8MupA8btIot+0Cje4/K3+37chctl4xIl3l8Nqlp26zm1c+8Nr0eJqHRKvC+/p7ZCH35fUeL9I1x51xdOjZQMFbNGepCuUmh/dcbJdN0qPrX14r0n7iaNl2qhZHiLuJs0f2iBVvE0GneX3nqObIgsmoTpw7i77J4LIq+rijDuFu/bzTVSvMfbgOI9nlHbFEgH0zkp+Sjeu/9Yu54xvNdX/fem+5wsm7zviAZ7Lr/tPFn399pq+KDt95MxJ9wui244XNb2rLxH87dyhE7fv+uiZbLingtl2T0XtvUhlX/cRctk+T1KvDem6/rIqRTvOcanpVmhYtbSPkabBe2vzjhpO0sXxHsYd0OWKr4NaRF3l912nqz/+/wgPg9sEXej+ZUDtfu0ir8q7obxNEt8Ztw1PxKQ2sp8b2otQO9OGBbvvG0mdCy0YaMOi9gWi5Zn+ySy8Q9XSfMkMnTfaTLiyItk7YuNV4YtvfXc4FiLWnEf8K5dghX4hdf3ivc8A3/8xctk1aM/kVWP/SQoZv0bT0r36r63zah0arJZdndf8d5vMlfe89ggb14N4xIqZvP2r4D8aft7hojcoE6ZtWqbBnsUgABTBeNuMo6Mu8k4hakQ+gA9Lsso3tNZJT61UfEe3zy7U/jqYPZPIt+X7j80/jDS8IPOk2EHnSuvnz2ij1MNmrivjD3x9vrfA/H+Qt97gdN64/jvNAr1duWqdMvvvqiveJ98qvSbfGraalum520z2TBqWOlNK2azNdyeXGn7u1pE+onIZSKizpG1FPH2dK+4ljDuJmPNuJuMU5gKsTOPjpO+aqs0lqN4T0OrKa2vDmb7JLJhXk28R3+Oe8TU82T4QefKgrNGNPxdbauqF1UHvkutvO8qI4+6UN6+7nBZ94K6KrL32E30Z7WT/n3CJUtl1aM/lRWP/iTYHl739yel/6itZeRRFzV4knp4WHLLebL8/mvqx3xU+q7Jp0r/KRTvOYZo7qwJJ6W401XRdqQVs7n7YLiAtP39qoioAdLV8/rHFRTxNQsy7iaLx4y76UY8xXs6XllTo3cnjIp3dGeyQs2aDynedbJAbItFGbkwiWycd3WkyVUJxPvUc+W1M0e2uK2vpi8GTdxHNj/5dnn7WrXy/mBD/tbTRpiktZzf6tIlsmzORbJ0jjoOU9N36gFh1MfCf9fyr/6f22T5/ddG2lUrr9+UUyjesw5OUL6YcamMOl1EviYiB4rIXxNUm1bMJijS6iRZ+rtIREb39GpdVMSPPf+uMxbOPnim1T3W1Dh34m6vyUdMPbdF3G10ib5xt90rq81xtnX87Y274SJJc9ytlcO4W+OH0Ado/YLUVpqGY+piEy4EJS7XsHjnbTOhpdCGjXoA4snaJfG+/r7vy8Z5jcdmRhx8nqiJ5NUz+h6bCfu2ycR9ZfNpt8vb1xwuawDHZra+bKksVeL9rvYvrHYaqf2mnCoD9ufKe+JoVlxCtSqsRPvXRWSwiPxdRLZPWH0WMZuwaCuTzRORyYCWrReRW8aeP+fohbOn9v6WPaBgV4qwXbwz7vb1JB5XzDa6KN7juVG8xzNqmwLpYBTvOQzRlHX9fVfLxvsaj82MPPhcGXHwufLq9JF9jsMMeve+ssW02+qlvHXNEbL2+fzHZra+fElDy9KW229/Jd5PgYDhJALBqM5in94j2geoC4xERL3YcIKI/FfCGnwT7wmxNCRbKCJjev7StPI+ZxnFexakjXl0xAPGXYr3/J5ZKwGprVBtylsOenfCsHjnbTOhQ6ANG3U0xLZYtDzrV4DmXi1qFUh9wsPIIw85V5SAf+X0mngPP+r7fqO3lqEf+qz0H72NDN3zGHnz6iNkzfO1F1abDzOn+fe2VyyRNS88KGuer/3g04o//VQ2Ln61T/3N7Qn/rVbdBxxA8Z43aObJHxmXapX9vJ6ylGgPP8tERP0iWNSM4X+3+tuMpmv+8zSvjHnVmXe1VaUelBS/hjPvOuOk7TBdiLsbehZNQpajDqktmrx8ujqu2BhP+4/eWoZ96LPSLxJ3w0WTaHxuFx/bxedtInFXxevlf/qpbFhc+62NJPG7v2dxF6EP0OOyjOIdHV+Mind0Z4ouz1cHs30SWTf3atkwN3rmXSQQ74ecIy+fNqqtm2zy7n1ly1NvlTe/f2RdvOfxqW2vfEeW3HmxLLmz8QXVpGUq4U7xnpSWnnSRHTH1FDW755iMOioTftTK+yVNgjw81hE93hH9m5dnthNaiLfNtAFle9xdrxZNShB3+x9wigz0aNEEcawWfXLAV22VMEYGySje09BqSuurg9k+iay7t+8kMurQmnh/6audxfu4L98qb1yFEe/bfbcm3t+5I7t4H/hRrrznGKK5s7aYlE4SkVkiMqxHyKuzUdNE5Ge5K2MBikDHe959RsS4m8z6jLvJOIWpKN7T8cqaGr07YVS8ozuTFWrWfEjxrpMFYlssysiJSeTeaxrOto8+9BwZeeg58tJXRvc58z5g/C4y9p++LV1DRsjA8bvIG1cdJWuey3/mfbvvLQ62a9cvejXYrl3466/L+tefTHwF5YCPThOK96yjE5Ovw7g8WUTUCrp6A/otEdkGUyNL6URAZ5y0nTzjbrKrIhl303kyQh+gxyVSW6WjoS81enfCsHjnbTOhq6ANG3VBxJO1S+J97T1Xy7p7r2kYhaMPO0dGHXqOvPDl8Aa63q8HTdhFxhx9gfRT972Pf78s/NXXZN2CJ3OP4nd99VbZsPg1Wd9z3nLRr74ma1OUO/Cj02TQgVx5z20IvQWoVffze25UeUZvVSxdZ5y0na7t4p1xt68H6XgxuLu7OmvciPGlPnpH8R4fjSje4xm1TYF0MJ2Tkn/i/RpZd09UvFdl9GHnyqjDzpYXTlWXWLS+R7hr8AjZZvbj0jV4eA6vaMz65g3/Iivnq19vjR5/bnePcZi39v3AA5V4V9ow/4eTSH6GLME8AZ1x0nzvOrfAfvEext3e+BYsmtTjbmN8C/+l4u02s5/QEHd/31NFsngbtodx1/xIQGor872ptQC9O2FYvPO2mdCx0IaNOixiWyxanu2TyJq71SQSvrBakapUZczh54iaSJ4/ZUzw714pXfs+vIWg3+CRMv70W4LuLvyF+u0dkWF7HSPD9zpGFlx5VJBu4IRdZLNPflsW/vLrwUr62E+pX3EX+ccvvtbw/Svn7y7rF73WUH5FeuurMW2sP/r9wANPkU0Oong3GXx1jkuT/XK1bp/t4UbcVccVe+Pr6MPPldGHnS3PnxIeV2wd/9Su5/jTb22IoyrmqtjbHHf/8cuvBzuj7eLuy+fvLhsW1W6X6RRf232vxLtPcRehD9DjsoziHR1zjYp3dGeKLs9XB3NhEll7d+OxmUC8H362PDctvD66vbdM6BHvC644KkjUnHfwjvvIhNNuCSaV1c8+KM3pw++T1NXJZwcd5NckUvT4TVKfzyu9SfgwTXEEGHcZd5W3oY/NIHbm0XHSV22VJppQvKeh1ZTWVwezfhKZc42o1ffoZ8wR58iYw8+WZ0+OF+9bTa+tvL92eY94b8o7RIn3028RJe5XPfugNKcPv09SVyf3U6s/m0zlynuOIZo7K3pSyt0gFuAtAcZdxl2Kd3eHP3p3wqh4R3emaLMixbtOFohtsShb2yeR1XOukbVzrm0S72fLmCPOlmdPGlu0m2Sub9DUaTJ4qrrUJP+HZ96zMdQ5LrO1yO9cPtvD/rh7rayd07xo4mLcPVkGe7RogtAH6HGJ1Fa2REz0QpBh8c7bZkLHQhs26rCIbTGnxPtd18iaOdc2XMm42ZG1SeSZE8cmvqoxfM2p3f8Pn3RMcMZ9yUM/q5+ZD8/OI/5/k6kny+CDufJuS/BlO8wT0BknzfeucwusF++Mu30MyEWTbKOK4j2eG8V7PKO2KZAOpnNS8k+8Xyur72pceR975Nky9siz5G8nbJbD4o1Ztz7zd8EfXr30Y7AyowUNPliJd668a4HLQp0koDNO2g7EfvHOuNvsQxTv2UYVUltlawE+F3p3wrB4520zvSvv+lggtsVcWnlfdWffSWSzo2ri/enjceJ9m7Nq4v2VS/SJ9yGHULzjw2jyEtEBN3nNTNmKgM/2sF28M+729VgXxDtCH6DHZRnFOzqiGxXv6M4UXZ6vDubEJHLndQ3usNlRZ8nYo86Sp7+0OcxNtjnrtz3i/eOwMhtW3g85SSjetaBNXKjPK72JITFhIQQYd2uYGXexP9KE2JlHx0lftVWaQELxnoZWU1pfHcz2SWTlHdeKWgVSn/De9JH7fEbGf+GqHNZunfXNm/9NFt0dfVAIT7vX0of19+ZO/r0S7pseypV3uNFSFIielFJUzaQk0EDAjbirYqF6S6j2GbXPMfKuL3wPbsk3b/6GLLr7+lzxtV18HnLISV7FXYp3uHu2LBC9O2FUvKM7U4wJemtBinedLBDbYlG29k8i18mqOxrPvKv2KwE/cOxWMDfZuGpZMIHo+gw5VIn3kyDFu7B9C+kouBCd4xLcVC+K89kejLs1F2fcxa68I/QBelwitZUtgRG9EGRYvPO2mdCx0IaNOiziydol8b7i963Fuy2DOGk7lHgfehjFe1JeTFd+AjrjpO30bBfvjLt9PYiLJtlGFcV7PDeK93hGbVMgHUznpOSleP9971GW8KrH0JCu/HvIYSdRvOcYn8xaPgI646TttJwQ77+/rn4Vr2vxNmwv4675kYDUVuZ7U2sBenfCsHjXd8NKEQZDOhjasNH+I7bFnFp5v/06UatArn/UqvvQw7nybtKOOselyX65WrfP9rBevDPu9hlWLqy8I/QBelwitZWrsS6u3UbFe1zjbP/eVwezfRJZfvt1svJ2fWfRi/LLTQ8/UYZRvBeFu2U9Pq/0GgXPyvsQYNwtxil8i7uInXl0nPRVW6XxcIr3NLSa0vrqYNZPIre5v+oeutqwI7jynmOI5s6KnpRyN4gFeEuAcbc40/sUdynei/Er9O6EUfGO7kwxJuitBSnedbJAbIu5dGymaD9woT4Xtm9t5KhzXNrYX9vb5LM9bBfvtvuOifa5EHcR+gA9LpHayoTdW9WJXggyLN5520xoZLRho86DeLKmeLclBGRrhwuTSLaeMZdPBHTGSds5UrzbbqG+7WPczWYzivd4bhTv8YzapkA6mM5JieI93siXX3yFXPytS/okvOaH35ejP/1Pwd/fWfyOnPzFU+S+e+YF//7cF/5FvnnRLNlk8CbBv6Nl7H/gFLn2R1fLqNGj4isvIAUnkQIgswrtBHTGSe2Nz1lBWcV7mWMv4242p0dqq2wtwOdC704YFu+89hSTXgAAIABJREFUbSZ0EbRho66H2BaLllfGSURNIOoz/ZzTW47aULh/6jOfrIv5X/381/LIQ/8dCPj5TzwpD/zhgXr+uPLwoaFziZxEshHXOS6ztcjvXD7bo4xxN1z0KGvsdSHuIvQBelyWUbyjI7dR8Y7uTNHl+epgZZxE4sR2VKiHK+1rVq+Rfzt3hnzqmE/Kh/bas8H9/vTIn4OVeFtW312YRIoev0nq83mlNwkfpimOQBnjbhLx7nLsdSHuInbm0XHSV22VJppQvKeh1ZTWVwcr4yTSSbyHIn2vSR+ur7rHuU2rCScuj87vXZhEdPY/a9noSSlrO5iPBMoYd+PEu+ux14W4S/FeTGxB704YFe/ozhRjgt5akOJdJwvEtliUbRknkVbnLt+3y85yw43Xy4QJ49uusLfyueefe0G+ftY35NuXfEvevcPEot2yZX0uTCJWgGpqhM5xaWN/bW+Tz/YoY9wNxXvz+0Zlib0uxF2EPkCPS6S2siWmoReCDIt33jYTOhbasFGHRTxZ+yDeVR9bnXlPs/qjhPsJx50oF11+YZ+jNCaDiAuTiEk+rNsNAjrjpO0Eyizeyxp7GXezjSqK93huFO/xjNqmQDqYzkmJ4j3eyFnOvIerRvtO3jcQ6uqc+7nTzwtW621ZcQ97zkkk3geYwn4COuOk7b33Ubwrm7Q7gqhitu2xl3E326hCaqtsLcDnQu9OGBbvvG2md+VdHwvEtpjPK++q7+1um/nFzb8MXkpdtGixdUdlojbjJJItGKMDbrZWMFcRcdJ2yr6Kd5djrwtxF6EP0HGyjOIdHV+Mind0Z4ouz1cHK+Mk0u6u4XO+cVb9KE3zPe/Ru9zV6tC0L53a4II23fXuwiRS9PhNUp/PK71J+DBNcQTKGHfD3ctWv7FRhtjrQtxF7Myj46Sv2ipNNKF4T0OrKa2vDlbWSSSHK1if1YVJxEaI6EnJxj6yTW4QYNx1w06u7XhSvBfjV+jdCaPiHd2ZYkzQWwtSvOtkgdgWK/uxmaJ9p+j6KN6zEdc5LrO1yO9cPtuD4t0933ch7iL0AXpcIrWVLV6DXggyLN5520zoWGjDRh0W8WRN8W5LCMjWDhcmkWw9Yy6fCOiMk7ZzpHi33UJ928e4m81mFO/x3Cje4xm1TYF0MJ2TEsV7DiOXJCsnkZIY0vNu6IyTtqOleLfdQhTvKAshtRWqTXnLQe9OGBbv+m5YyQs6SX6kg6ENG20/YltM58p7EtZMk5/A0LkP5C8kUkJ3d3XWuBHjZ0ILtawwnePSsq460Ryf7YEW704YvASNtD3uIvQBelwitVUJXKhlF4yKd9eh+upgyEnEdR/wuf1+iHe3j/b57J9l6zvjbtksmq0/6LiL2JlH74j5qq3SeATFexpaTWl9dTBOIjmcpkRZ0ZOIjWjQk5KNfWSb3CDAuOuGnXS3Eh13Kd51W6xWPnp3wqh4R3emGBP01oIU7zpZILbFomw5iRTtaXbWh55EbOylznFpY39tb5PP9mDctd07i2kfOu4i9AF6XCK1VTFWia8FvRBkWLy7vSWNdDC0YaOuhHiypniPH5y+pUBPIr7xY3/TE9AZJ9O3ptgcFO/F8ra1Nh/iLlJb2WJHdOyieM9hWaSDoQ1L8Z7DsMyaiIAPk0giEExUGAGdcbKwTmSsiOI9I7iSZfMh7iK1lS3mR+9OGBbvvG0mdCy0YaMOi9gW48q7LSHAnnb4MInoHJf2WNKdlvhsD4p3d/xUZ0vRcRehD9DjsoziHe0TRsU7ujNFl+erg3ESKdrT7KwPPYnY2EufV3pttIfPbWLc9dn6vX1Hx13EsVp0nPRVW6XxcIr3NLSa0vrqYJxEcjhNibKiJxEb0aAnJRv7yDa5QYBx1w076W4lOu5SvOu2WK189O6EUfGO7kwxJuitBSnedbJAbItF2XISKdrT7KwPPYnY2Eud49LG/treJp/twbhru3cW0z503EXoA/S4RGqrYqwSXwt6IciweOdtM6HJ0YaNuhLiyZriPX5w+pYCPYn4xo/9TU9AZ5xM35pic1C8F8vb1tp8iLsU7/HeR/Eez6htCqSD6ZyUKN5zGJlZ2xLwYRKh+e0ioDNO2tXTvq2heLfdQsW0z4e4i9RWxVglvhb07oRh8c7bZnpX3vWxQGyLNa+8x7sqU/hAYNyI8TPL3E90wC0zqyL65rM9lHgvgjHrsJ8AMu4i9AF6XJZRvKO9yqh4R3em6PLoYEUTZ30kUCwBn1d6iyXN2kiABEwQQOzMo+MktVW8J1C8xzNqm4IOlgMes5KAAwTQk5IDXWYTSYAEPCJA8V6MsdG7E0bFO7ozxZigtxakeNfJArEtVjRb1kcCNhDQOS5t6J9rbaA9XLMY22s7AYQ+QI9LpLayhT96IciweOdtM6FjoQ0bdVjEk7UtA4DtIAES8JeAzjjpL1X2nATsIkDxHm8Pivd4Rm1TIB1M56RE8Z7DyMxKAiRgDQGdcdKaTrIhJOA5AaS2sgUlenfCsHjXd8NKEQZDOhjasNH+I7bFiuDJOkjANgI6x6VtfXWhPbSHC1ZiG10igNAH6HGJ1FYu2SJNW42K9zQNtTEtHcxGq7BNJIAjwJVeHEuWRAIkYB8BxM48Ok5SW8X7CcV7PKO2KehgOeAxKwk4QAA9KTnQZTaRBEjAIwIU78UYG707YVS8oztTjAl6a0GKd50sENtiRbNlfSRgAwGd49KG/rnWBtrDNYuxvbYTQOgD9LhEaitb+KMXggyLd942EzoW2rBRh336+FHzKpWuyVWpztrphsXBr/SpAVuRygz13/w7OdAfOC4YBxgHGAf8jAO2CNywHRTv8RaheI9nVMixGZ3iPUcXmZUESIAErCHAOGmNKdgQEtBGoJziHXtBi2Hxju2MNk9qUzDSwdDbTkWzYH0kUEYCHJd2WZX2sMsebA0JKALocYnUVmW1kFHx7jpUOpjrFmT7SaAzAa700kNIgARIoNg4SW0V73EU7/GM2qagg+WAx6wk4AABincHjMQmkgAJGCWAjpNl1Fbo3Qmj4h3dmaK9F+lgrrMomj3rI4EiCHBcFkE5eR20R3JWTEkCRRFAj0uktiqKQVw96Accw+Kdt82EBkcbNs6R+D0JkAAJuEaAcdI1i7G9JJCeAMV7PDOK93hGbVMgHYyTUg5DMCsJkIAXBBgnvTAzO+k5AaS2sgUlenfCsHjnbTO9K+9us7BlgLAdJIAkgA64yLb5WBbt4aPV2WfbCaDHZRnFO9qGRsU7ujNFl0cHK5o46yOBYglwpbdY3qyNBEjAPQLoOEltFe8DFO/xjNqmoIPlgMesJOAAAfSk5ECX2UQSIAESSEUAHSfLqK3QuxNGxTu6M6m8DZAY6WCuswDgZBEkYB0Bjku7TEJ72GUPtoYEFAH0uERqK1sshH7AMSzeedtM6Fhow9risGwHCZAACaAIME6iSLIcErCXAMV7vG0o3uMZtU2BdDBOSjkMwawkQAJeEGCc9MLM7KTnBJDayhaU6N0Jw+Ld7RtWkA6GNqwtDst2kIDLBDgu7bIe7WGXPdgaElAE0OMSqa3KaiGj4t11qHQw1y3I9pNAZwJc6aWHkAAJkECxcZLaKt7jKN7jGRVybCZHM5iVBEhAEwGKd01gWSwJkEBpCKDjZBnFO3p3wqh4R3em6JGAdDDXWRTNnvWRQBEEOC6LoJy8DtojOSumJIGiCKDHJVJbFcUgrh70A45h8c7bZkKDow0b50j8ngRIgARcI8A46ZrF2F4SSE+A4j2eGcV7PKO2KZAOxkkphyGYlQRIwAsCjJNemJmd9JwAUlvZghK9O2FYvPO2md6Vd7dZ2DJA2A4SQBJAB1xk23wsi/bw0erss+0E0OOyjOIdbUOj4h3dmaLLo4MVTZz1kUCxBLjSWyxv1kYCJOAeAXScpLaK9wGK93hGbVPQwXLAY1YScIAAelJyoMtsIgmQAAmkIoCOk2XUVujdCaPiHd2ZVN4GSIx0MNdZAHCyCBKwjgDHpV0moT3ssgdbQwKKAHpcIrWVLRZCP+AYFu+8bSZ0LLRhbXFYtoMESIAEUAQYJ1EkWQ4J2EuA4j3eNhTv8YzapkA6GCelHIZgVhIgAS8IME56YWZ20nMCSG1lC0r07oRh8e72DStIB0MbNuqwTx8/al6l0jVZ/a0q1Vk73bB4pvrvp08YPbMilRn8OznQH1qPi7mDPvSHaVfdMcV2PlKReZVqdV4wliuVKVKVoM2ovzNuME5yvij3vJlH5KL1C1Jb5emXzXmNinebwSRpmysO9rcTxlTfe8OiSpI+MQ0JkEAvARdWetX41m0zxg/dhFk+CbhLAB0nXdFWJi1G8Z6DvisOplZMwtX2HN1lVhLwjgB6UtIBkOJdB1WWSQJ+EEDoA3ScdEVbpfEQ9O6EUfGO7kwakIi0SAdznQWCJ8sgAdsIuDAufRLvLtjDNh9me0igEwHEzjx6XCK1lS3WRz/gGBbvvG0mdCy0YW1xWLaDBEhAL4GU4n1ptavy8Up395Uild2StsyWYzOMk0ktxnQkkIwAQrwnqyl5Kor3eFYU7/GM2qZAOpjOSQmxLZYDE7OSAAloJJBCvAfCXWTDyyL9t610V38rIiOSNI3iPQklpiEB9wjYqA+Q2soWi6B3JwyLd94207vyro+FjU/WtgwotoMEOhFAB1wdtFOI9yUi1ZerXV2n96y8byMiI5O0yR7xri9OJuHANCRAAn0JoONkGcU72m+Mind0Z4ouzxUHo3gv2jNYX1kI6NwRQzFKId6DKqtdlf0r3dX70tRvi3hP02amJQESKIYAOk66oq2Kodu6For3HPRdcTAbt8VyYGdWEiiMAHpS0tFwincdVFkmCfhBAKEP0HHSFW2VxkPQuxNGxTu6M2lAItIiHcx1FgieLIMEbCPgwrj0Sby7YA/bfJjtIYFOBBA78+hxidRWtlgf/YBjWLzztpnQsdCG1emw333gpR//6dUl6rysts+Htxn98tHv3/yVrq6u4Adouru7gx+ZUv9W/x3+f7QBadJGy+pURvhdu7K1AXCk4PEjBge/1suPOQJ+iXe354w8XsK42xv/83AsQ15k3EWIdzRTivd4ohTv8YzapkA6mE7xjtgWi0I45j//Mu/u5xZOzoEuNuvJk7YR9T9+7CVQrVZnIScRe3tqd8vixHtVKrO6pLptVeS4Wk+qj4tUdlf/VRG5sVsqL1ekOqNTL205864zTtptZRHGXdstVEz70HEXrQ8QFJDaCtEeRBno3QnD4t3tmwOQDoY2bNTZ0E/WnEQQQ9n9MtCTiI1EdI5LVH+bxPtSEXm8oeyqLBm0fuPn1w3sd2WvgK8J9/fcsOjzfzth9GlV6Wq4daYi1c+LSP3p2R7x7vackcfmjLt56JUnr41xFx0nkdqqPJZv7IlR8e46VFcczLR432Or2lXSj76mdEWyD1fek3EymcrGSQTNw4WV3ibxrlbRf9zMYeC67u/2Ee8V+fHAtRtPXzugn0rfeN97RdTKfF3Q2yLe0fZ1qby04p1x1yXrJm+rjXEXHSdd0VbJrYZPSfGeg6krDobeFks6ifzzB8bLATuMlUdfWxJQ3mOrkTL3uYXyk7+8Hkud4j0WkfEENk4iaCjoSQndPlVe+mMzva2oVOTH3dXKK64cm9HBz5UyGXddsZTedqLjLkIfoOOkK9oqjaXRuxNGxTu6M2lAItIiHcwlFkkmkbP3nyivL13TR6grUT5sUH/5zn0vdDQBxTvCQ/WWgZ5E9LY2W+kujMs48d7cc5fveXfBHtk8LT4X4248Ix9SoOMuYmcePS6R2soWn0A/4BgW727fHIB0MLRhdTps3CSixPmVH3+ffPHnT7Rsxo8+vZuc9tv/leVrN7RtJsW7TgtiykZPIphW+VeKX+Ld7Tkjj3cy7uahV5686LiLEO9oukhthW5b1vLQGo/iPaslRATpYGjDRruF2BaLlhc3iaizlntuNVKufeiVlnSVMP/za0s6noGneM/hmAVlRU8iBTW7dNVQvJfOpC07xLjrh53jeomOu2h9ENf+JN8jtVWS+opIg96dMCze3b45AOlgaMNGnRH9ZM1JpIihbn8d6EnExh7rHJeo/vol3t2eM/LYnHE3D73y5LUx7qLjJFJblcfyjT0xKt5dh+qKg5VNvC9auV6+8PMn5KXFqxpc6P/uPk6+ceAOfdzq2bdXyDfveV6u/Nj7ZMymA1K73bfueU62Hz1EPvuB8anzJs2wev1GOfOWp+WfPzheJm07Kmm2jul++pfX5cXFq1oyQVRg4ySC6Fe0DJ07Yqi2phDvS0WqL1e7uk6rdHdfKVLZts8tM20axdtmUNbKXo5p8c64m8x2PsZddJx0RVsl8wg9qSjec3B1xcHQ22LtJpErP76zDBs0QIYP6ifDNukvry9d25Lu+BGDZPmaDbJs7UZZvna9nPbbp/qk63RsJpxEzjlgYl3o6hC/YaMo3lsPEor3HMEDmDWFeF9S7ap8QmTDyyL9t610V38TvQ6yU5Mo3oEGy1gU425GcB2y6Zg3XBPvCH1A8R7vm+jdCaPiHd2ZeHzYFEjx7hKLdpOIehG13Uuq7ci3y5NWvKvyQ5G9x4QRcuZtfwuqrIjI1z/6brnqwZflosN2kgvufa5hdTsqzFXQvWhu7RackYP7yw8/tas8umBp/W/nHjAxWH1/6OV35KRfPhmk22+70XLpUTvJ4AH9GroYTgr3v7Q4+Hs0708ee72eJwz0Z0zePlh53338cPnPxxbIktUb6nnCnYPhg/pLWN51n9yl/uDSqj1/fX1ZvY3tdiTyjgY/xLv9xzRSiHdl8kDAV7q7rwh/ZTWJH9gi3l2Kk0m4pknDuMu4q/wFHXcRO/PocYnUVmnGmM606Accw+Ld7ZsDkA6GNqxOJ7RxEomuxo8dMkC+9Iv5ctHhOwUCN3ps5q5n3q4fJVF5Tvvd/8q/HfhuWbhqvVw89wX590/vFhytUaJefdQxnKjAV2WpB4NLj3ivbDVqcCC4x40Y1OdoSnT1RdVz/p3PyOxD3iPP/GOFdBLvC5auCdqwaOXaej2qHao/J+29TfDwoNrzxtK1wQPAa++sbtse11aAdPpsmctOKd4zobBHvLs9Z2SC35OJcZdx11bxnsevW+VFait027KWh9Z4FO9ZLcHbZiY3o2u1ir7j5kNl2qStg6TfmfuC/H1Z41GaPCvvzWfew9XtqMBW9UfFuxLPoUhvFtLR/kSFb/Pq/IMvvVNfOVer3lExHpbRTjg3p29eed9nu1H1s/XNOwnqgUH1J1rGb558U9q1R33HM+85BrgjWSneHTFUzmamEe+Mu43vPjHutnc+xLGZnK7dJ3s5xTt2F9eweMd2Bu1AceUhHQy97RRtO2JbLFpemkkkvNNd3f1+9gHb9znfnke8R8+8R9vX/IJq9N8qXbja/l/z36i/iNp8zEWlC4+btDtaE9a53egh9RX7aDtUvv96/I3gT+Exl7hJJPrCalS8R1+4bRbv4VGf5vZEdxnifDnL9+jt2yxt0J1H57hEtd0v8e72nJHH5oy7jT/sx7ibx5uwedFxEqmtsD21pzSj4t0eDNla4oqDmRTv6iXW8IXUVkK9aPEeHonZYuggeX7hKvnihyYEq9lqBTy6gt1p5T3tanbz8ZzoSn14PCc88x6uvIcPE+rf6gx/J/Herj08NpNtXEdzobc687eobwlPnzB2po5yo2XudMNC7XXo7oPr5acR74y7Ioy7xXk8Ok66oq2KI9y3Jor3HPRdcTD0tliaSeRj799C9pgwUoZt0k/ue26R/O5/32ogbkK8hy94Rl82jYr3Veu6g6so99x6RMcz70r0R8+fR19aja7WN595P/f2p4OXYcdsOqheTyjeFZzms+zqb+3Ee/TMe3N7eGwmx+DuyYqelPK3iCX4SoBxt3bmnXG3Omv8iMGwh2mEPkDHSVe0VZpYhN6dMCre0Z1JAxKRFulgLrFIM4kozvu/e0yA+77nF/XBbkK8hy+3fnr3cfXz5dE7jNV27Bc+tJXMeeYfgZBWIlgdTWl120y7rdvmO5Gjt8OEx2lU3invHiMr122QVrfNhHmajwE1H72J3jYTbU/4d942k320uzQus/fSnZw+24Nxt/e2GcZdnHhH7MyjxyVSW9kS3dAPOIbFu9s3ByAdDG1YnQ6bdhLZY6sRQXMefW0pRLzr7BvLTk7AhzPvyWkwZREEXIqTaB6Mu2iibpaHjrsI8Y4midRW6LZlLQ8duyjes1qCt80kum1G4aV4z+FkFmdFTyIWd5VNs4QAegK0pFuJmkHxnghT6ROh4y7i2AwaejnFO/Zle8PiHdsZtAPFlYd0MPS2U7Tt6CfrtJNIJ45Zjs3E2YXfF0MAPYkU0+p0tegcl+lawtSKgM/2YNzlGFAEbIy76HGJ1FZl9Rqj4t11qK44WFHi/c4TPiS/+5/GF1LjbKxeaD3khj/1SdbpF1bjyuT3xRCwcRJB99znlV40S5aXj0A78c64m4+ra7ltjLvoOOmKtjLpOxTvOei74mDobbF2k8iePWfb0yL9c4uz8BTvaSkWn97GSQRNAT0podvH8vwhwLjrj6079RQddxH6AB0nXdFWaTwSvTthVLyjO5MGJCIt0sFcYtFuEkEwDcugeEfS1FMWehLR08p8pbo0LvP11I3cPtuDcdcNH9XdSnTcRezMo8clUlvptkfS8tEPOIbFO2+bCQ2PNmxSh8qSjpNIFmrly4OeRFwh9PTxo4+uVCo/6hI5eMcbFv13XLufOWnM+Gq33Nkl8qUk6aPl/e2EsTeLVD8d/q1arX5ypx8s/lVcna2+f/aEMR/uFvlhpUsO6d5Y3asiXaf326T7sB2uWrwsS3km8rgUJ9F8GHfRRN0sDx13EeIdTZLiPZ4oxXs8o7YpkA6mc1JCbItFIXz3gZd+vHDFuuNyoIvNusdWIyXrMZzYwpkAQgA9iUAapbmQ5748evjGtV03q2oq1e5H3vODxbPjqswq3gPhXpUJocDuEd93VavVL2YR8FHx/p7rFr0e124bv9cZJ23sL+Ou7VYpvn3ouIvWBwgiSG2FaA+iDPTuhGHxzttmQqdAGzbqbOgn69eXrp5ZqVRmIByaZbhLAD2J2EiieVzWBHBlRnel+4quauVytYqthHAg6td0/b4q3VcoYR0KdumSr8rGymypVPcRkaVqtb4yqPq0StvzN3V7RJ/V9LC8inTPiT4g1FbiRd57w8LPqP+PrsyH5fTU/ZCIbF1jWvm5St9q5b0ytPrp6orKz6UiC3pX+GvpVc6eXYZfhuVEHyai9mqXbsMaOahSqVwhIsOlWvkf9SDS87damdXKg+pv6j9b8VO7Feo7tWNQrVQfrlQrx4cc0+5i2OhfadrEuJuGVnnT2hh30fqljOId7ZFGxTu6M0WX54qDUbwX7Rl+1GfjJIIm37zS+8zxo89XdShBrYRztdr9CyXW24l3JT6rXbIgemwmuqLeI2RbHsFRdVUrlVmh+G7uW+37rp0bhLnIp6rVyg9D0d8j2H/RJfKpUARHj83UxbuIRIR10J6edj9UrVan999E7g4eOHrSRY/ahA8LrdI19y+6e1AvsyIL+g3qPiFGvN8lUrlT9TXot3RNde3IT17fpHjPS7Ac+W2Mu+gdMVe0lUmPonjPQd8VB0Nvi3ESyeE0Jcpq4ySCxhudlMIjM11SnaVWfWurzV2fUoIyqXgPV93DFfp2K+xhP9qtojfX167f0SM7ncR7KPaj6TdWqxOi5+KD/rY4J9/89+i/e8S72qGYpHYoWqatVC6vqIeFauWHzTsXkZX34AFEcc96DAntG0WXx7hbNHE760PHXYQ+oHiP9xX07oRR8Y7uTDw+bAqkeHeJBScRrB+5Whp6ErGRQ3RchqvGIjIi0tZXlTDtGlBd3m7lOLryHl3NDs+tq5X4SrX7qbjz81GhL/0qP6p2S7Aq3nz+vfEIS9DS4LhOJ/HeSjRXq9WDoyvc7cR780p4H/EeEfzNaetHeXp2DDqI9+BF2302/+nxD7792R9kfQHYRh9L2ibG3aSkyp0OHXcRO/No/YLUVrZ4A/oBx7B4520zoWOhDavTYTmJ6KTrTtnoScT2njefN1ftDYV31yZyZVS8R4+rRMV70pX3YHV5Y+XnlX7VT0dfLg2PyjQfM2leqQ9FfdKV91aiGbbyHhHvSVfeWxz3CVbeJ235s0ceevOYvbpF6ivxtvsNqn2MuyiSbpeDjrsI8Y4mSvEeT5TiPZ5R2xRIB9Mp3hHbYlEIyElk9Ud3zmEBZk1LYPC9T6XN0jY9ehKBNUxDQdFz3dGV7nAlOfriZ/1cdqUyPXJ2vH5VZNIz780PC2EbKtXqj8Iz96qrkTPvv+jqqkzr7q5eXRfvtXPzQTtSr7zXzurnP/MeEe9xZ97Vi7PN/HrafVelWr18n3E3z3rwjc/M4Jn3fE7OuJuPX9rcNsddtD5Iy6ZVeqS2QrQHUQZ6d8KweOdtM6FToA0bdTb0kzVavCMDG2KQlbUMNWEjWfsg3sNx2XMUpX52O/SRqBjtV6ks6Ba5Sx2rqVaqP6hUK3urM9uR22Xen/S2mbD85nveK9XqjPB4TXiMpvnWmt4XXUUqUr2sWu3aS62s97Sv4Z738KGj1cp777n+iroZZmlFqj9UZbV6UTRyVKchXXDmvemcfMOxnp7bZtQLsNFjSVF+4UOHVCtLe/oaHFVy9brLrPGFcTcrObP5fIi7aP1SRvGO9kKj4h3dmaLLc8XBKN6L9gw76/NhEkGT17kjhm6r7vJaHRtqVWfSdEnbW4b76ZP2tVM6incExeLL8CHuouOkK9qqeG/qrZHiPQd9VxwMvS3GSSSH0xjM6sMkgsaLnpTQ7dNZXp8XdCOr5NF6k6bL2laK9xo5xt2sHmQ2n+1xF6EP0HHSFW2VxrPQuxNGxTu6M2lAItIiHcwlFpxsn0FzAAAgAElEQVREEN5TfBm2TyLFE4mv0aVxGd8b91P4bA/GXTf91/a4i9iZR49LpLayxWvQDziGxTtvmwkdC21YnQ7LSUQnXX1l2z6J6Os5Sy4LAZfiJJo54y6aaDHl2R53EeIdTZLiPZ4oxXs8o7YpkA6mc1JCbItFIXASyeE0BrPaPokYRMOqHSGgM07ajoBx13YLtW6f7XEXrQ8QVkJqK0R7EGWgdycMi3feNtO78q6PBfrJmpMIYigXX4btk0jxROJrRAfc+BqZohMBn+3BuOvm2PAh7qLHZRnFO9p7jYp3dGeKLs8VB6N4L9oz7KzPh0kETd7nlV40S5aXjwDFez5+pnL7EHfRcdIVbWXKp1S9FO856LviYOhtsSInkeoLf5O1Z31BqkuXBJbq9+GPyMDzLxfZZEgOyyXIumaVrJs9Xfr/07FSGTVW1n13tgycdZVURo1JkNnOJD5MImjy6EkJ3T6W5w8Bxl03bW173EXoA3ScdEVbpfFI9O6EUfGO7kwakIi0SAdziUVRk0go3Ad+7TvStce+gcnWXzlLqm+/UYyA73ES1Q6K974jxqcfaULEC5aRn4BLcTJ/bxtLYNxFEy2mPNvFO2JnHj0ukdqqGCvH14J+wDEs3nnbTGhytGHjXSl7iqImke5HH5B1V18kgy6/sb7iHQj6b54hg/7tMqlMfK+oNGvPOaHlqvyG39wk679/QfDdgFO/Jv0/cWwg/ivbTAz+WyKr613v/0Cw0l5dtlS6n35CBn3zKtlw2y+k39SjZP2N10j11RelsvX2MuBz02Tj3bfUHx5Ue9bf/CMZeMasxt2AnrI3/vcfpet9u9fa8Llp0qeei2+o/02lVZ9B6m977Bv0bcOvb6rXpfpTfeUFGXDajKAfMmSobHz4vqBt/Y/8dPD3Th/bJ5HsHsmcvhBwKU6ibcK4y7irfAq9aIIQ72hfp3iPJ0rxHs+obQqkg+mclBDbYlEIRU0i1XcWydrpx4ksXSyDLvn3QKxHPw1CfvzWgfiubD4uELFR4VtdvVrWzfiyDPzq+bLh1p93FO9h/qiwjx6bUfWHZan2KEGtPsHDQOSj/t795wcC4d39P38JHjACUd7zkFCvp2k3QaVdd8HZQX+r7yzsKN43/vGuIJ2M3izgNPCUc+s7FK2cluI9x2BnVisI6IyTVnSwQyMYd2sxnHG3Omv8iMEzUf6K1geIdiG1FaI9iDLQuxOGxbu+G1YQsOPKQDoY2rDRtqOfrIuaRMI+RFfQKyNG1oV8VCCrM/BRwb7+ukt6RXoERtzKe9ee+/ZZlW8+867K6LfvR2tC/LIZMuAzX2x8sIiu6KvjPi1W+FvVExwN6kmrvu/aatvOK+9qNb9ntT26Kt/Obyne40Z03+91jsv0rWEOn+3BuMu4qyIAeuUdEVXQ4xKprRD9s7EMo+LdRiBp2uSKg7ku3qM2iR6l2TjvjvqxmDCNOtoy6ILrZP1V35K6QE4h3tULqlER3eqFVdWGjQ/cGxxVaXVkJtwxqK+EtxDvYT190vasxKujPXHivX78RyTYAQiP1FC8pxnFndP6vNKLo8iSEASKFu+Mu7WLEZqPKzLutlrkwB6BdkVbIcZ11jIo3rOSExFXHAy9LVbUJNLqSIoSu+GxlY3zH20rWBtW2NuI9wbh3HOcJYl4V/nWX/J1qWy7g1Q226LPkZmGlfY2K++t6olbeQ/Oufestkf/W/2t+d+t3Jor7+kHO8V7embMoYcA4y7jro6Vd4Q+QMdJV7RVmpGO3p0wKt7RnUkDEpEW6WAusShqEml+OVXZTAn6DbfcHLzEKov/0fDyavQmmg13/Lp+5lydeQ/PhKsV8/C2mlZn0ZOI91Ash2fOm8/ih+3sdOa9Xk/Mmffw/Ht4rr3fbnvWX1jd+MSfaxxEeOYdMaBblOHSuNSEwKpifbYH425tkYJxF3vmHbEzjx6XSG1lSwBDP+AYFu/YrZaijYR0MLRhdbIoahIJVhma7nkPjsVEbp+J3jbT/J0K9OoF1WC1uue2mXC1Xd3Q0u+Aw0VWLg/ucg9fJG0p3ifuVHtxVt0E01N3800wfXhHbpvpWI/KGEkb1NFz20z4kBC8ZLv19tJv7/1FVq2oi/fqyhXS/diDwR34Yf862Z0r7zpHBcsugoBLcRLNg3F3TJ8buBh383sZQrznb0VjCUhthW5b1vLQsYviPaslwMdm0IaNdguxLRYtr8hJJId5tGZtdyynVaWtdhDyNi5N/WFdFO95qTO/aQI646TpvsXVz7hbW3mPnjnvxIxxN86jat+j9UGyWjunKqd4x17QYli8YzuDcJo0ZSAdDL3tFO0H+sna60mkZ5Vc8e30S6/RVX+VNrqansbH2qVNM4lRvGcnrnNcZm+Vvzl9tgfj7vTA8Rl3scdmENEEPS6R2grRPxvLMCrebQSSpk2uOBjFexqrljctV97T29bnld70tJhDJwGvxbtOsJrL9iHuouOkK9pKs+t0LJ7iPQd9VxwMvS3GSSSH0xjM6sMkgsaLnpTQ7WN5/hBg3HXT1rbHXYQ+QMdJV7RVGo9E704YFe/ozqQBiUiLdDCXWHASQXhP8WXYPokUTyS+RpfGZXxv3E/hsz0Yd930X9vjLmJnHj0ukdrKFq9BP+AYFu+8bSZ0LLRhdTosJxGddPWVbfskoq/nLLksBFyKk2jmjLtoosWUZ3vcRYh3NEmK93iiFO/xjNqmQDqYzkkJsS0WhcBJJIfTGMxq+yRiEA2rdoSAzjhpOwLGXdst1Lp9tsddtD5AWAmprRDtQZSB3p0wLN5520zvyrs+Fugna5cmkbfeWC3qf/MfXYgYf1rL2HWPsTJxh2Gy6bABWuqxfRLR0umchaIDbs7meJ/dZ3sw7upxf8bd/FzR47KM4j0/5cYSjIp3dGeKLs8VB/NRvCvBftmsJ2T+Y4uKdovc9U09YoKcOH1nuIineE9vGp9XetPTYg6dBFwQ74y7fT3Ah7iLjpOuaCud4z2ubIr3OEIdvnfFwdDbYrZPIg/Ne1Mumz1fVi5fn8O6ZrOq1fdLrt1Ltn/PcFhDfJhEYLB6CkJPSuj2sTx/CDDu6re1j3EXoQ/QcdIVbZXGI9G7E0bFO7ozaUAi0iIdzCUWNk8iLz6zTM46+ZG6cD/2hB3loCMmyBbjBiNMrrUM1fbf/Owlufv2BUE9aiL5j9/tD1uBp3hPbz6XxmX63rmXw2d7MO7q8Vff4y5iZx49LpHaSo/XpC8V/YBjWLzztpnQBdCGTe9ayXPYPImcfdIj9aMy19y0H3TlOjmhfCnn3LZALp/1RFDIQYdPkDNm7pavwJ7cFO8QjCzEIAGX4iQaE+Mummhjeb7GXYR4R1uG4j2eKMV7PKO2KZAOpnNSQmyLRSHYOomo85bHHTU3aKpacT/2+B1yWNds1stmPlFfgb/zz4dDGkPxDsHIQgwS0BknDXYrUdWMu4kw5UrkY9xF64NcBujJjNRWiPYgykDvThgW7/puWEHAjisD6WBow0bbjn6ytnUSUUdOrr/8qaDrN95ygBNHZdr5mHrRVu0iqM93rttLdv3gmDh3jP2e4j0WUZ8EOsdl+tYwh8/2YNzV7/+Mu9kYo8clUltl65H9uYyKd/vxdG6hKw7mi3i/6QfPyU03PBsYDbVabcpH1cu2Rx8wh+LdlAF66vV5pdcwelbfRMBW8c6429lVfVg0QcdJV7SVySBF8Z6DvisOht4Wc3USUasq4dWR6lhN+FHHbe6+9bXgn9G/t3INJarVZPXCs8uCrydN2UI+/pnt6klV+b+9+WVZsXy9DB02QD7+mW0bVs3Dh4u4elSBh+x5O8V7jvGJyIqelBBtYhl+EmDcZdxVnl+tVmeNHzF4JmoUIPQBOk66oq3S2AC9O2FUvKM7kwYkIi3SwVxi4eokEl0hih5Fue6yp+S3N7+UaMV+2rH3i7qdYPsdh8vQof1l/l8W11f51RWVs896LChn1w+MDr5Tn/Mv+aBMmrJl8N+hIE+yM0Dxjhil+cpwaVzm66kbuX22B+Mu464O8Y7YmUePS6S2siWyoR9wDIt33jYTOhbasDodtgyTSPQWF3U8JbwTvpOoDs9DKuF+zU/2CxCrfOEvoqqXZdUqfnjLjRL5Suyru9rV3yjedXoly/aBgEtxEm0Pxl3GXVvFO9rXKd7jiVK8xzNqmwLpYDonJcS2WBSC65OIEt9KZP9q7lQJV8s3HTpAVq5YH6yiT/vn++XFZ5fVX3pVK+Dq+xmXfjB4iVTdGa/EeyjaFZtWwl79PSwrFPRcec8x4JjVewI646TtcBl3GXd1iHe0PkCMI6S2QrQHUQZ6d8KweOdtM70r7/pYILbFyiTeT5y+c3ArzfQZu8nD894MhHz0CEx4vEYdd9ly3JBg9XzvyVvIjEv3qItxJeCPPXHH4B72qHhXx2W+c/3edVxnn/hwcHwmPKZD8Y4Ig8WVgQ64xbW8nDX5bA/XxTvjLmZMos+8I1qFHpdlFO8IztEyjIp3dGeKLs8VB6N4r3lGKMqVkL505hOy5fghwYq5mlSUiA/Pr4fHXdSLqOrIi/rBJCX0px4xITgmc+msJ+ThP7wVlKn+pr4LV94p3osehXrr83mlVy9Zlp6WgOvinXE3rcVbp7dTvGOPQLuirTAWzVYKxXs2bkEuVxwMvS1WhklE3RYT3gmvjs/MOvPRhpdPP3fkXNnyXYNl+x1HBC+zqjTNx2RmnflYcNRGrdCrm2XUkRqK9xwDysKsFO8WGsXTJjHu1o4nMu7ythkXQwB6d8KoeEd3pmiDIsW7SyzKMIls8a4hctnMxwNxftIZO0t4vCV8YTW8gUaJ8RUrNtRfUI36WLiSr1bu1Qq8evFVCfz/+N3+wf9H72oPxT+PzRQ9SvPV59K4zNdTN3L7bA/G3cYdVMZdzJhF7MyjxyVSW2Eo5S8FvRBkWLxjt1ry401XAtLB0IZN15N0qcswiTT/YmmzeA+Pzigy6k72Y4/fIbgi8u7bF9TvbVfHZ5RAD19GDX9aW10LufeULeTuWxcEK0Xq+I16QFCfULyr8sLPQUdu1fLXYHlVZDq/ZOryE3ApTqKtwbhb+5Vpxl3syjtCvKN9Hamt0G3LWh46dlG8Z7UE+NgM2rDRbvHYTOOKTfSO95BTs3hXfz96/znBsZjo1Y9nnfRI8Lfwo1Z/PnFM7UealJBXK/ZK4Icf9aLrmTN2qx+5CQV51D6t2hMV+u2+T+u6PvzSX1omTO8WAZ1x0nYSPoh3xt14L0SfeUfrg/gexKcop3jHXkpiWLxjOxPvEtgUSAdDbztFe4p+snZ1EklrfSXoX3h2ufzqvqkNWcNfaZ244/CGc/BhIiXi59y2IDhTr47THHjkVjJxh2Et03ZqE1fe01oMn17nuMS3tvwl+mwPxt1FgYMz7mJX3hFRAz0ukdoK0T8byzAq3m0EkqZNrjgYxXsaq0pwPGb+XxcFq+jRH3NKV4oEd8irMt5+c3X9qsg0ZVC8p6GlJ63PK716iLLUrATKLt4Zd5N5BnrlPVmtnVOh46Qr2grBLmsZFO9ZyYGPzeRoRmxW9LZY2SeR8EXUzbccLJfcsHfL8+ix0CMJ1Eq9ekFW3Q2f5kPxnoaWnrToSUlPK1mqDwQYd9NZmXE3GS+EPkDHyTKKd/TuhFHxju5MMlfFpUI6mEssyj6J4DwkX0kU7/n4IXK7NC4R/bW9DJ/twbhbjHf6FncRO/PocYnUVsV4TXwt6Accw+Kdt82EJkcbNt6VsqfgJJKOXbgdvGLZennxueWyYnnvC6/qfvjtdxgmQ4cPkF3/z5jgR6HCj2+TSDqqTO0jAZfiJNo+jLvpiDLuJuOFEO/JakqeiuI9nhXFezyjtimQDqZzUkJsi0UhcBKJdxq1ZXvPbQvkwT+8FdxCk/Sj7offZ/IWcuARE+pZ2r2glbTMMB1vm0lLjOltI6AzTtrW1+b2MO7GW4hxN55Rcwq0Pkjfgr45kNoK0R5EGejdCcPinbfNhE6BNmzU2dBP1pxE2g9lJdQvmz0/eFm11Uf96FPzZ/5fFrdMq+6LP+P8XVPfUtOudRTv6UOwznGZvjXM4bM9GHcZdxUBO19YxWq5Mop3dPQ2Kt7RnSm6PFccjOK9OM+Yduz9wW016rPp0AEyafIWwQ827fbBMR1FuBL9Tzy2SB6e95Y8pFbre+6SV8do1D3ziA/Fe3qKPq/0pqfFHDoJULy3p8u4q9Pz4stGx0lXtFU8GX0pKN5zsHXFwdDbYpxEWjuNWm2ffdZjwZfqikn1q6rqGEzaT/OPPZ1/yQdFrcLn/VC8pyeInpTSt4A5SKBGgHGXcVcRQK+8I/QBOk66oq3SxCb0rqFR8Y7uTBqQiLRIB3OJBSeR1t4TXjGpvv3V3KmZhHtYshLwRx8wJ/jnsSfsKMcev0Nul6V4T4/QpXGZvnfu5fDZHoy7jLs6xDtiZx49LpHaypYoh37AMSzeedtM6Fhow+p0WE4i8ZOIutP92BN3DFbg037uvn1B8ONO4YuuFO9pCTJ9WQm4FCfRNmDcZdy1VbyjfZ3iPZ4oxXs8o7YpkA6mc1JCbItFIXASiZ9EwhTq2Iw6766ug9x1j7H1jOrF1eiLqvMfXRhcI6nOvTffTkPxnmOQMmupCOiMk7aDYtxl3NUh3tH6ADGOkNoK0R5EGejdCcPiHfuGMgJwmjKQDoY2bLQfiG0xivd4z4gem1G/zvr2m6vjM7VJEc1P8Z4ZY+6MOsdl7sZ5WIDP9qB4jxfvjLtmggJ6XCK1lRki+ms1Kt71d09vDa44GMW7Xj8IS4+K9zv/fLioO4cfmveWzP/LInnx2doNNJ0+2+84XHb9wBiZNGUL2fWDYyT8kSaK9zhy+r73eaVXH1WWnIUAxXu8eGfczeJZ+fOg46Qr2io/uewlULxnZyeuOBh6W4yTSLJJpDmVukJyRc8VkNHvhg4d0PDLquF3FO85BicoK3pSAjWLxXhIgHGXcVcR4G0zbg5+9O6EUfGO7kzRJkWKd5dYcBLJNomk9U+K97TE8OldGpf43ttXos/2YNxl3NUh3hE78+hxidRWtkQx9EKQYfHO22ZCx0IbVqfDchLhJKJjEtHpsyy7HARcipNo4oy7jLs64i5CvKN9neI9nijFezyjtimQDqZzUuKxmRxGTpE1euZ9+ozdZOoR6a+JDKubc9sCuXzWE8E/eeY9hRGYtNQEdMZJ28FRvMeLd8bd9F6M1gfpW9A3B1JbIdqDKAO9O2FYvPO2md6Vd30s0E/WnETiJxGVQr10etCRE2TSR7ZI9INN6orIh/74ltx964LgZdfwQ/GOCJ3ZykAH3GytYK4i4qTtlBl3GXd1rLwj/B4dJ8so3hGco2UYFe/ozhRdnisORvFejGdEV96ba9z+PcNFvZiq7ndv/qj73tWLrOqF1lYfivdi7NeqFp9Xes1RZ82tCFC8JxPv0VSMu8WMJXScdEVbFUO3dS0U7znou+Jg6G0xTiLxk8iJ03eW3/z0pUx3vau7ij/x2e3k+sufCiqieM8xSHNmRU9KOZvD7B4TYNxl3NWx8o7QB+g46Yq2ShOO0LsTRsU7ujNpQCLSIh3MJRacROInEXXfsPqo1fQn1D3vzyyTt95YJW/+fXWDoFdCfct3DZYtxg0Jrovc7QNj6tdG8rYZxCjNV4ZL4zJfT93I7bM9GHcZd3WId8TOPHpcIrWVLZEN/YBjWLzztpnQsdCG1emwnESSTyJ57EDxnoce85aRgEtxEs2fcZdx11bxjvZ1ivd4ohTv8YzapkA6mM5JCbEtFoXASYSTiI5JJMdQZFZPCOiMk7YjZNxl3NURd9H6ADGOkNoK0R5EGejdCcPiXd8NKwjYcWUgHQxt2GjbEdtiFO9x3iASfWH1V3OnJrphpl2p6uaZow+YE3zNM+/x7HWl0DkudbW5zOX6bA+K93jxzrhrZvSjxyVSW5khor9Wo+Jdf/f01uCKg1G86/WDsPSoeFfn1086fefgusi0H3VN5HVXPFW/fYbiPS1BXHqfV3pxFFkSggDFe7x4Z9xFeFr6MtBx0hVtlZ4ULgfFew6WrjgYeluMk0j8JBKm2GLcYJk0ZcvgJVT1UurEHYY1rMirFfYXnlsevMyqXmp9aN6b8tYbqxsqoHjPMUhzZkVPSjmbw+weE2DcZdxVBKrV6qzxIwbPRA0FhD5Ax0lXtFUaG6B3J4yKd3Rn0oBEpEU6mEssOInETyKbDh0gK1esz+xm0fwU75kx5s7o0rjM3VkHCvDZHoy7jLs6xDtiZx49LpHaypawhn7AMSzeedtM6Fhow+p0WE4i8ZOIuipyzm0L5OF5b8r8xxYnEvJKsO/6wdGy95QtZeoRE4S3zej0YpbtIgGX4iSaL+Mu466t4h3t6xTv8UQp3uMZtU2BdDCdkxJiWywKgZNIskkkmio4HvNs7RdU1S+qhp/wF1cn7ji8zwuuFO85BiezlpKAzjhpOzDGXcZdHeIdrQ8Q4wiprRDtQZSB3p0wLN5520zvyrs+FohtMRfE+29+9lL9V0lvvOUAUefNi/xEX1gNf6QpT/0U73noYfKiAy6mVf6W4rM9bBXvjLudx+Pqj+4sg++t/Vo24oM+845oE3pcllG8IzhHyzAq3tGdKbo8VxzMF/GuXvQ87qi5gRugzomn8anoJHbNTfvVfyk1TRlhWvXy6rRj7w/+eeL0neUTx2yXpZiGPD5MIrkhNRXg80ovmiXLy0fAVvHOuEvxjo6TrmirfCM6X26K9xz8XHEw9LaYrZOIMuXZJz5cP5aSV0CndQ01iU377P318+3q3PrHP7NdKhGvRPtvb34pOC+vPuoc/DU/3Q+yi0DxntaiIuhJKX0LmIMEagQYd1t7AuNuvhGC0AfoOOmKtkpDHr07YVS8ozuTBiQiLdLBXGJh8ySixO9ZJz1SF9DHHr+DTJpcu6qxiI8S3ddf9lTDC6rq+M7E94yQ7XcYFjRB/femwwZIcA7+maXB3158bnnw39FrIpVwP2PGrsFVk4gPxXt6ii6Ny/S9cy+Hz/Zg3G3vr4y72ccyYmcePS6R2io7GWxO9AOOYfHO22ZC90AbFut2jaXZPImolqofOZp15mOJbnhBcVIvnn7n+r2D4pQAv+n6Z+Xu22ur51k+Bx0+QY49cUfIintYP8V7Fkswj00EXIqTaG6Mu32JMu7m9zKEeM/fisYSKN7jiVK8xzNqmwLpYDonJcS2WBSC7ZNIKKAvm/l4w80uOUwdmzU6iYSJ1cr6g394S558dFHwI0zRW2aaC1T51Y847bLHGNln8hZ9bp6JbUCCBBTvCSAxidUEdMZJqztu+bGZkJ1auGDcbfQk2+MuWh8gxhFSWyHagygDvTthWLzru2EFATuuDKSDoQ0bbTv6ydoF8R6dTN76e2fhHGfnJN9vPm5wcDd70o+a5Iq+Dcf2SSQpuyLT6RyXRfajLHX5bA/G3b5ezLhrx8hGj0uktrKDEL4VRsU7vjvFluiKg/ks3ov1CLtro3hPbx+fV3rT02IOnQRcEu86ObhWtg9xFx0nXdFWJn2R4j0HfVccDL0txkkkh9MYzOrDJILGi56U0O1jef4QYNx109a2x12EPkDHSVe0VRqPRO9OGBXv6M6kAYlIi3Qwl1hwEkF4T/Fl2D6JFE8kvkaXxmV8b9xP4bM9GHfd9F/b4y5iZx49LpHayhavQT/gGBbvvG0mdCy0YXU6LCcRnXT1lW37JKKv5yy5LARcipNo5oy7aKLFlGd73EWIdzRJivd4ohTv8YzapkA6mM5JCbEtFoXASSSH0xjMavskYhANq3aEgM44aTsCxl3bLdS6fbbHXbQ+QFgJqa0Q7UGUgd6dMCzeedtM78q7PhboJ2v0JIIYGCwjGYHB9z6VLGGCVNVqddb4EYNnJkjqbBJ0wHUWhCUN99kejLuWOGGGZpQ97qLHZRnFewa36ZjFqHhHd6bo8lxxMJvFe9E2Y304An6Id7eP9uGszZJME0CKd9N9Yf3ZCdgYd9E7Yq5oq+xWzJ+T4j0HQ1ccDL0txkkkh9OUKKuNkwgaL3pSQreP5flDgHHXH1t36ik67iL0ATpOuqKt0ngkenfCqHhHdyYNSERapIO5xIKTCMJ73C8DPYnYSMSlcWkjP3SbfLYH4y7am9wsDx13ETvz6HGJ1Fa2WBn9gGNYvLu9JY10MLRhdTps2SaRKy6+QC759uwGZDvvsqtc/+ObZOIOO8o7ixfLKV88Tubde3dDmt/NuU/23Gvv+t9eeO5ZOfHzx8pTT84P/vYvX/iSzLrwEtlk8GCd5jBWNnoSMdYRVuwMAZfiJBpq2eKu4sPYm95L0HEXId7T96JzDqS2Qrcta3no2EXxntUSIoJ0MLRho91CbItFyyvbJKImEPU5/Zyv1bv56//6mfz3Qw8G4nv16tWBeFffh2I9FOoXXvbd4G/N/w4npjff+HtpBTx6EskxFJnVEwI646TtCMsWd8MYydibzvPQcRetD9L1pnVqpLZCtAdRBnp3wrB413fDCgJ2XBlIB0MbNtp29JN12SaRVuJdifFLL/yWXHDplQHKZvGu/hYV+E8+8XiwinT1j26UUaNHB3lUGd84a7p865LLgxX8sn3Qk4iNfHSOSxv7a3ubfLZH2eJuO/HO2Nt5FNoYd9HjEqmtbI9pWdtnVLxnbbQt+VxxMIr3zh6TZeU9FOfNAv/tt9+qH7exxU91tcPGSQTdV59XetEsWV4+Ar6I97hdT99jr41xFx0nXdFW+UZ0vtwU7zn4ueJg6G2xsk0irc5dTvnoQfVV9PDMe/TYTPMEEq62q4nn1C/9a+BV0XPzOdzM2qw2TiJoWOhJCd0+lucPgbLF3XDlvfl9I8beYlfeEfoAHSdd0VZpog96d8KoeEd3Jg1IRFqkg7nEomyTSHTlfc3q1TLjvLPkw5P2kX/6v8cEbtJOvP/5kYf7HB/NDQAAABVHSURBVJWJ+lXc9wgfNFmGH+Ld7aN9Jv1DR90uxUl0/8sWd0Pxrv5fLYww9ibzGHTcRezMo8clUlslo6o/FfoBx7B4520zocugDavTFcs2iTQfm2l++bSdeI9u7/7+1t8GyEPBH4r+r515mpx53jd45l2nQ7Jsbwi4FCfRRilb3G0W7+rfjL3xXmOjeI9vdboUFO/xvCje4xm1TYF0MJ2TEmJbLAqhbJNIljPvrW6baX45VYn7X/7spw0vseZwN+uyoicR6zrIBllHQGectK6zTQ0qW9xtJd7V3+LOvPsee9FxF60PEOMIqa0Q7UGUgd6dMCze3d6SRjoY2rBRZ0Nsi/km3sPV9k8e81nZ/8CDM93zHj27iRj8tpWBnkRs659qj85xaWN/bW+Tz/bwRbwz9nYehTbGXfS4RGor22Na1vYZFe9ZG21LPlccjOLdFo8pVztsnETQhH1e6UWzZHn5CJRRvOcj4mduG+MuOk66oq1MeiDFew76rjgYeltMTSI5sDFriQiMHzG41L6AnpRKZHp2pWACjLsFA7e4OmTcRegDdJx0RVulcRH07oRR8Y7uTBqQiLRIB3OdBYInyyAB2whwXNplEdrDLnuwNe4TQOzMo8clUlvZYiH0A45h8c7bZkLHQhvWFodlO0iABEgARYBxEkWS5ZBAjQBCvKNZUrzHE6V4j2fUNgXSwXROSohtsRyYmJUESIAEIAR0xklIA1kICThGwEZ9gNRWtpgDvTthWLzztpnelXd9LGx8srZlQLEdJNCJADrgknY+ArRHPn7MTQI6CKDHZRnFO5q7UfGO7kzR5bniYBTvRXsG6ysLAa70lsWS7AcJkIAuAug46Yq20sUzSbkU70kotUnjioPZuC2WAzuzkkBhBNCTUmENZ0UkQAIkkIAAQh+g46Qr2ioB3noS9O6EUfGO7kwakIi0SAdznQWCJ8sgAdsIcFzaZRHawy57sDXuE0DszKPHJVJb2WIh9AOOYfHO22ZCx0Ib1haHZTtIgARIAEWAcRJFkuWQQI0AQryjWVK8xxOleI9n1DYF0sF0TkqIbbEcmJiVBEiABCAEdMZJSANZCAk4RsBGfYDUVraYA707YVi867thpQiDIR0Mbdho/58+ftS8SqVrclWqs3a6YXHwi5hqwFakMkP9N/9ODvSH1uNivy1/JgtnHzyTfBg3GCcZJ8saB/LqJbR+QWqrvH2zNb9R8W4rlKTtooMlJcV0JOAmAa70umk3tpoESKA4Aug4SW0VbzuK93hGhRybydEMZiUBEtBEAD0paWomiyUBEiABYwTQcbKM4h29O2FUvKM7U7TnIh3MdRZFs2d9JFAEAY7LIignr4P2SM6KKUmgKALocYnUVkUxiKsH/YBjWLzztpnQ4GjDxjkSvycBEiAB1wgwTrpmMbaXBNIToHiPZ0bxHs+obQqkg3FSymEIZiUBEvCCAOOkF2ZmJz0ngNRWtqBE704YFu+8baZ35d1tFrYMELaDBJAE0AEX2TYfy6I9fLQ6+2w7AfS4LKN4R9vQqHhHd6bo8uhgRRNnfSRQLAGu9BbLm7WRAAm4RwAdJ6mt4n2A4j2eUdsUdLAc8JiVBBwggJ6UHOgym0gCJEACqQig42QZtRV6d8KoeEd3JpW3ARIjHcx1FgCcLIIErCPAcWmXSWgPu+zB1pCAIoAel0htZYuF0A84hsU7b5sJHQttWFsclu0gARIgARQBxkkUSZZDAvYSoHiPtw3FezyjtimQDsZJKYchmJUESMALAoyTXpiZnfScAFJb2YISvTthWLy7fcMK0sHQhrXFYdkOEnCZAMelXdajPeyyB1tDAooAelwitVVZLWRUvLsOlQ7mugXZfhLoTIArvfQQEiABEig2TlJbxXscxXs8o0KOzeRoBrOSAAloIkDxrgksiyUBEigNAXScLKN4R+9OGBXv6M4UPRKQDuY6i6LZsz4SKIIAx2URlJPXQXskZ8WUJFAUAfS4RGqrohjE1YN+wDEs3nnbTGhwtGHjHInfkwAJkIBrBBgnXbMY20sC6QlQvMczo3iPZ9Q2BdLBOCnlMASzkgAJeEGAcdILM7OTnhNAaitbUKJ3JwyLd94207vy7jYLWwYI20ECSALogItsm49l0R4+Wp19tp0AelyWUbyjbWhUvKM7U3R5dLCiibM+EiiWAFd6i+XN2kiABNwjgI6T1FbxPkDxHs+obQo6WA54zEoCDhBAT0oOdJlNJAESIIFUBNBxsozaCr07YVS8ozuTytsAiZEO5joLAE4WQQLWEeC4tMsktIdd9mBrSEARQI9LpLayxULoBxzD4p23zYSOhTasLQ7LdpAACZAAigDjJIokyyEBewlQvMfbhuI9nlHbFEgH46SUwxDMSgIk4AUBxkkvzMxOek4Aqa1sQYnenTAs3t2+YQXpYGjD2uKwbAcJuEyA49Iu69EedtmDrSEBRQA9LpHaqqwWMireXYdKB3Pdgmw/CXQmwJVeeggJkAAJFBsnqa3iPY7iPZ5RIcdmcjSDWUmABDQRoHjXBJbFkgAJlIYAOk6WUbyjdyeMind0Z4oeCUgHc51F0exZHwkUQYDjsgjKyeugPZKzYkoSKIoAelwitVVRDOLqQT/gGBbvvG0mNDjasHGOxO9JgARIwDUCjJOuWYztJYH0BCje45lRvMczapsC6WCclHIYgllJgAS8IMA46YWZ2UnPCSC1lS0o0bsThsU7b5vpXXl3m4UtA4TtIAEkAXTARbbNx7JoDx+tzj7bTgA9Lsso3tE2NCre0Z0pujw6WNHEWR8JFEuAK73F8mZtJEAC7hFAx0lqq3gfoHiPZ9Q2BR0sBzxmJQEHCKAnJQe6zCaSAAmQQCoC6DhZRm2F3p0wKt7RnUnlbYDESAdznQUAJ4sgAesIcFzaZRLawy57sDUkoAigxyVSW9liIfQDjmHxzttmQsdCG9YWh2U7SIAESABFgHESRZLlkIC9BCje421D8R7PqG0KpINxUsphCGYlARLwggDjpBdmZic9J4DUVragRO9OGBbvbt+wgnQwtGFtcVi2gwRcJsBxaZf1aA+77MHWkIAigB6XSG1VVgsZFe+uQ6WDuW5Btp8EOhPgSi89hARIgASKjZPUVvEeR/Eez6iQYzM5msGsJEACmghQvGsCy2JJgARKQwAdJ8so3tG7E0bFO7ozRY8EpIO5zqJo9qyPBIogwHFZBOXkddAeyVkxJQkURQA9LpHaqigGcfWgH3AMi3feNhMaHG3YOEfi9yRAAiTgGgHGSdcsxvaSQHoCFO/xzCje4xm1TYF0ME5KOQzBrCRAAl4QYJz0wszspOcEkNrKFpTo3QnD4p23zfSuvLvNwpYBwnaQAJIAOuAi2+ZjWbSHj1Znn20ngB6XZRTvaBsaFe/ozhRdHh2saOKsjwSKJcCV3mJ5szYSIAH3CKDjJLVVvA9QvMczapuCDpYDHrOSgAME0JOSA11mE0mABEggFQF0nCyjtkLvThgV7+jOpPI2QGKkg7nOAoCTRZCAdQQ4Lu0yCe1hlz3YGhJQBNDjEqmtbLEQ+gHHsHjnbTOhY6ENa4vDsh0kQAIkgCLAOIkiyXJIwF4CFO/xtqF4j2fUNgXSwTgp5TAEs5IACXhBgHHSCzOzk54TQGorW1CidycMi3e3b1hBOhjasLY4LNtBAi4T4Li0y3q0h132YGtIQBFAj0uktiqrhYyKd9eh0sFctyDbTwKdCXCllx5CAiRAAsXGSWqreI+jeI9nVMixmRzNYFYSIAFNBCjeNYFlsSRAAqUhgI6TZRTv6N0Jo+Id3ZmiRwLSwVxnUTR71kcCRRDguCyCcvI6aI/krJiSBIoigB6XSG1VFIO4etAPOIbFO2+bCQ2ONmycI/F7EiABEnCNAOOkaxZje0kgPQGK93hmFO/xjNqmQDoYJ6UchmBWEiABLwgwTnphZnbScwJIbWULSvTuhGHxzttmelfe3WZhywBhO0gASQAdcJFt87Es2sNHq7PPthNAj8syine0DY2Kd3Rnii6PDlY0cdZHAsUS4EpvsbxZGwmQgHsE0HGS2ireByje4xm1TUEHywGPWUnAAQLoScmBLrOJJEACJJCKADpOllFboXcnjIp3dGdSeRsgMdLBXGcBwMkiSMA6AhyXdpmE9rDLHmwNCSgC6HGJ1Fa2WAj9gGNYvLt/24wtjsF2kAAJkAAJkAAJkEAZCDx/7sJKGfoR9oHivUzWjPQFbdiSYmK3SIAEPCbAOOmx8dl1EnCYAHp3wvDKO29Y6X0qIwuHxyWbXlIC6IBbUkyFdYv2KAw1KyKBxAQ4LhOjgiU0Kt5hvWBBJEACJKCBAFd6NUBlkSRAAqUiwDhZvDkp3otnzhpJgAQcIcBJyRFDsZkkQALGCDBOxqNH704YFe/ozsTjszcFWdhrG7bMXwIcl3bZnvawyx5sDQkoAhyX8X6AfsAxLN7dvm0m3lzJU6ANm7xmpiQBEiABNwgwTrphJ7aSBEigkQA6dlG8W+JhaMNa0i02gwRIgARgBBgnYShZEAmQQIEE0LsThsU7b1gJfQdt2AJ9klWRQGkJcFzaZVrawy57sDUkoAhwXBbvB0bFe/HdZY0kQAIkkJwAV3qTs2JKEiABPwkwThZvd4r34pmzRhIgAUcIcFJyxFBsJgmQgDECjJPx6NG7E0bFO7oz8fjsTUEW9tqGLfOXAMelXbanPeyyB1tDAooAx2W8H6AfcAyLd942E5ocbdh4V2IKEiABEnCLAOOkW/Zia0mABGoE0LGL4t0Sz0Ib1pJusRkkQAIkACPAOAlDyYJIgAQKJIDenTAs3nnbTO/KO1kUOI5YFQkkIoAOuIkqZaK2BGgPOgcJ2EeA47J4mxgV78V3lzWSAAmQQHICXOlNzoopSYAE/CTAOFm83Snei2fecVVJpDKjlqA6a+Hsg2eq/1JPtfw7OdAfDIyLqkxZ+M2Dp1gUJrxvCuMh5wXOj5bpBMbJ2LiM3p0wKt7RnYmlxwQkQAIkQAIkQAIkQAIkUCAB9O6EYfHO22YK9B1WRQIkQAIkQAIkQAIkUDABiveCgbM6EiABEiABEiABEiABEshKAH3SxPDKO29YyeoIzEcCJEACJEACJEACJOAfAaPi3T/c7DEJkAAJkAAJkAAJkAAJZCdA8Z6dHXOSAAmQAAmQAAmQAAmQQEcCPDZDByEBEiABEiABEiABEiABRwjwhVVHDMVmkgAJkAAJkAAJkAAJkADFO32ABEiABEiABEiABEiABBwhwGMzjhiKzSQBEiABEiABEiABEiABNAG+sIomyvJIgARIgARIgARIgARIQBMBindNYFksCZAACZAACZAACZAACfDYDH2ABEiABEiABEiABEiABBwhwBdWHTEUm0kCJEACJEACJEACJEACFO/0ARIgARIgARIgARIgARJwhACPzThiKDaTBEiABEiABEiABEiABNAE+MIqmijLIwESIAESIAESIAESIAFNBCjeNYFlsSRAAiRAAiRAAiRAAiTAYzP0ARIgARIgARIgARIgARJwhABfWHXEUGwmCZAACZAACZAACZAACVC80wdIgARIgARIgARIgARIwBECPDbjiKHYTBIgARIgARIgARIgARJAE+ALq2iiLI8ESIAESIAESIAESIAENBGgeNcElsWSAAmQAAmQAAmQAAmQAI/N0AdIgARIgARIgARIgARIwBECfGHVEUOxmSRAAiRAAiRAAiRAAiRA8U4fIAESIAESIAESIAESIAFHCPDYjCOGYjNJgARIgARIgARIgARIAE2AL6yiibI8EiABEiABEiABEiABEtBEwLh4V1sJIpUZtf5VZy2cffBM9V/8OznQHzguGAcYBxgHGAcYBxgHyhQHEHreuHhHdIJlkAAJkAAJkAAJkAAJkIAPBCjefbAy+0gCJEACJEACJEACJFAKAhTvpTAjO0ECJEACJEACJEACJOADAYp3H6zMPpIACZAACZAACZAACZSCAMV7KczITpAACZAACZAACZAACfhAgOLdByuzjyRAAiRAAiRAAiRAAqUgQPFeCjOyEyRAAiRAAiRAAiRAAj4QoHj3wcrsIwmQAAmQAAmQAAmQQCkIULyXwozsBAmQAAmQAAmQAAmQgA8EKN59sDL7SAIkQAIkQAIkQAIkUAoCFO+lMCM7QQIkQAIkQAIkQAIk4AMBincfrMw+kgAJkAAJkAAJkAAJlIIAxXspzMhOkAAJkAAJkAAJkAAJ+ECA4t0HK7OPJEACJEACJEACJEACpSBA8V4KM7ITJEACJEACJEACJEACPhCgePfByuwjCZAACZAACZAACZBAKQhQvJfCjOwECZAACZAACZAACZCADwQo3n2wMvtIAiRAAiRAAiRAAiRQCgIU76UwIztBAiRAAiRAAiRAAiTgAwGKdx+szD6SAAmQAAmQAAmQAAmUggDFeynMyE6QAAmQAAmQAAmQAAn4QIDi3Qcrs48kQAIkQAIkQAIkQAKlIEDxXgozshMkQAIkQAIkQAIkQAI+EKB498HK7CMJkAAJkAAJkAAJkEApCFC8l8KM7AQJkAAJkAAJkAAJkIAPBCjefbAy+0gCJEACJEACJEACJFAKAhTvpTAjO0ECJEACJEACJEACJOADAYp3H6zMPpIACZAACZAACZAACZSCAMV7KczITpAACZAACZAACZAACfhAgOLdByuzjyRAAiRAAiRAAiRAAqUgQPFeCjOyEyRAAiRAAiRAAiRAAj4QoHj3wcrsIwmQAAmQAAmQAAmQQCkIULyXwozsBAmQAAmQAAmQAAmQgA8EKN59sDL7SAIkQAIkQAIkQAIkUAoCFO+lMCM7QQIkQAIkQAIkQAIk4AMBincfrMw+kgAJkAAJkAAJkAAJlIIAxXspzMhOkAAJkAAJkAAJkAAJ+ECA4t0HK7OPJEACJEACJEACJEACpSBA8V4KM7ITJEACJEACJEACJEACPhCgePfByuwjCZAACZAACZAACZBAKQhQvJfCjOwECZAACZAACZAACZCADwQo3n2wMvtIAiRAAiRAAiRAAiRQCgIU76UwIztBAiRAAiRAAiRAAiTgAwGKdx+szD6SAAmQAAmQAAmQAAmUggDFeynMyE6QAAmQAAmQAAmQAAn4QIDi3Qcrs48kQAIkQAIkQAIkQAKlIEDxXgozshMkQAIkQAIkQAIkQAI+EKB498HK7CMJkAAJkAAJkAAJkEApCFC8l8KM7AQJkAAJkAAJkAAJkIAPBOri3YfOso8kQAIkQAIkQAIkQAIk4DqB/w9PoXniXGTOigAAAABJRU5ErkJggg==;" vertex="1" parent="1">
          <mxGeometry x="100" y="90" width="660" height="660" as="geometry" />
        </mxCell>
      </root>
    </mxGraphModel>
  </diagram>
</mxfile>
